<svg viewBox="174.85714285714286 77.13 941.1428571428572 546.766" xmlns:xlink="http://www.w3.org/1999/xlink" xmlns="http://www.w3.org/2000/svg" version="1.1" style="max-height: 500px" width="941.1428571428572" height="546.766">
<path transform="matrix(1,0,0,1,188,94.95811745033777)" d="M0 319.04 C0 319.04 0 319.04 0 319.04 0 319.04 0 319.04 0 319.04 0 319.04 0 319.04 0 319.04 0 319.04 0.021 318.968 0.05 318.89 0.158 318.597 0.485 317.62 0.88 316.83 1.469 315.653 2.774 313.753 3.44 312.61 3.888 311.841 4.102 311.316 4.53 310.66 5.007 309.928 5.62 309.238 6.2 308.44 6.86 307.531 7.59 306.555 8.27 305.49 9.026 304.307 9.781 302.939 10.5 301.64 11.221 300.339 11.896 298.916 12.59 297.69 13.212 296.59 13.823 295.707 14.45 294.61 15.148 293.388 15.875 291.996 16.57 290.68 17.265 289.363 17.948 288.115 18.62 286.71 19.357 285.168 20.085 283.439 20.79 281.79 21.495 280.139 22.17 278.472 22.85 276.81 23.53 275.149 24.191 273.389 24.87 271.82 25.488 270.392 26.119 269.261 26.74 267.77 27.48 265.996 28.143 263.901 28.95 261.85 29.836 259.598 30.989 257.067 31.86 254.81 32.652 252.756 33.188 250.847 33.99 248.87 34.816 246.833 35.916 244.704 36.76 242.77 37.517 241.037 38.164 239.548 38.84 237.81 39.573 235.926 40.16 233.746 40.98 231.86 41.765 230.055 42.816 228.42 43.63 226.71 44.414 225.063 44.944 223.622 45.79 221.79 46.881 219.426 48.79 215.769 49.69 213.74 50.224 212.536 50.348 211.86 50.87 210.82 51.524 209.518 52.539 207.982 53.44 206.6 54.345 205.212 55.326 203.864 56.29 202.51 57.256 201.154 58.03 200.076 59.23 198.47 61.042 196.044 64.155 191.823 66.17 189.42 67.587 187.73 68.704 186.72 69.98 185.26 71.34 183.704 72.61 181.876 74.08 180.34 75.544 178.81 77.196 177.551 78.78 176.06 80.451 174.488 82.385 172.701 83.85 171.13 85.078 169.812 85.921 168.606 87.06 167.33 88.275 165.97 89.559 164.652 90.94 163.22 92.484 161.618 94.243 159.855 95.9 158.18 97.556 156.505 99.217 154.839 100.88 153.17 102.544 151.499 104.137 149.905 105.88 148.16 107.788 146.25 109.781 144.14 111.88 142.16 114.066 140.098 116.453 138.066 118.76 136.04 121.069 134.013 123.527 132.134 125.73 130 127.93 127.87 129.796 125.406 131.97 123.25 134.146 121.093 136.106 119.326 138.78 117.06 142.35 114.035 147.241 110.238 151.65 106.9 156.165 103.482 161.55 99.559 165.57 96.8 168.546 94.757 170.913 93.259 173.48 91.67 175.853 90.2 178.1 88.925 180.42 87.57 182.74 86.215 185.169 84.896 187.4 83.54 189.509 82.258 191.455 80.968 193.47 79.66 195.485 78.351 197.47 76.905 199.49 75.69 201.437 74.519 203.327 73.614 205.37 72.48 207.611 71.237 209.832 69.898 212.39 68.52 215.402 66.897 219.105 65.118 222.33 63.41 225.425 61.771 228.795 59.762 231.37 58.48 233.229 57.555 234.422 57.047 236.26 56.27 238.579 55.29 241.34 54.235 244.21 53.14 247.569 51.858 251.528 50.425 255.19 49.08 258.851 47.735 262.593 46.287 266.18 45.07 269.568 43.92 272.815 42.967 276.14 41.94 279.465 40.913 282.716 39.903 286.13 38.91 289.698 37.872 293.638 36.889 297.11 35.85 300.276 34.902 303.122 33.813 306.14 32.96 309.116 32.119 311.818 31.44 315.09 30.76 318.996 29.948 324.548 29.335 328.04 28.55 330.459 28.006 331.945 27.432 334.11 26.85 336.587 26.184 339.436 25.469 342.1 24.79 344.762 24.112 347.272 23.433 350.09 22.78 353.226 22.053 356.741 21.35 360.07 20.66 363.397 19.97 366.739 19.436 370.06 18.64 373.419 17.835 376.756 16.68 380.11 15.85 383.426 15.029 386.835 14.39 390.07 13.68 393.147 13.005 396.153 12.232 399.07 11.69 401.796 11.184 404.011 11.024 407.03 10.49 411.056 9.778 417.358 8.138 421.06 7.64 423.449 7.318 424.948 7.433 427.01 7.24 429.254 7.03 431.606 6.694 434.02 6.4 436.599 6.086 439.442 5.746 442.02 5.41 444.435 5.095 446.544 4.663 449.03 4.45 451.83 4.21 455.098 4.335 458 4.14 460.749 3.955 463.341 3.631 466.01 3.34 468.681 3.048 471.272 2.707 474.02 2.39 476.932 2.054 480.106 1.589 483.02 1.38 485.756 1.184 488.018 1.278 491 1.13 494.811 0.941 500.692 0.405 504.01 0.25 506.063 0.154 507.336 0.15 509 0.12 510.666 0.09 512.426 0.082 514 0.07 515.408 0.059 516.667 0.053 518 0.05 519.333 0.047 520.667 0.052 522 0.05 523.333 0.048 524.667 0.042 526 0.04 527.333 0.038 528.592 0.04 530 0.04 531.574 0.04 533.426 0.04 535 0.04 536.408 0.04 537.668 -0.055 539 0.04 540.344 0.136 541.786 0.487 543.03 0.62 544.096 0.734 545.112 0.691 546.01 0.83 546.768 0.947 547.275 1.191 548.08 1.33 549.179 1.519 550.796 1.544 552.02 1.74 553.107 1.914 553.985 2.154 555.07 2.4 556.317 2.683 557.839 3.026 559.08 3.35 560.167 3.634 561.111 3.92 562.12 4.22 563.127 4.52 564.129 4.751 565.13 5.15 566.192 5.573 567.265 6.249 568.31 6.72 569.294 7.163 570.175 7.456 571.22 7.91 572.466 8.452 574.03 9.245 575.28 9.78 576.33 10.229 577.026 10.458 578.21 10.94 580.05 11.689 583.562 12.99 585.23 13.88 586.227 14.412 586.687 14.917 587.5 15.38 588.369 15.875 589.284 16.244 590.3 16.74 591.518 17.335 592.969 18.149 594.31 18.71 595.593 19.247 596.802 19.561 598.17 20.06 599.739 20.632 601.618 21.429 603.2 21.97 604.582 22.443 605.907 22.689 607.13 23.17 608.265 23.617 609.266 24.253 610.31 24.72 611.294 25.161 612.242 25.531 613.22 25.91 614.202 26.291 615.288 26.555 616.19 27 617.021 27.41 617.728 27.999 618.46 28.44 619.127 28.842 619.755 29.264 620.4 29.55 620.985 29.809 621.492 29.851 622.15 30.12 623.063 30.494 624.278 31.226 625.32 31.7 626.303 32.147 627.255 32.434 628.23 32.9 629.268 33.396 630.434 34.114 631.36 34.61 632.093 35.003 632.609 35.305 633.34 35.65 634.207 36.059 635.199 36.406 636.24 36.87 637.481 37.422 638.931 38.227 640.28 38.77 641.572 39.29 642.787 39.589 644.16 40.08 645.733 40.642 647.319 41.275 649.19 41.98 651.548 42.869 655.155 44.075 657.19 44.99 658.503 45.58 659.163 46.08 660.34 46.65 661.787 47.351 663.706 48.116 665.26 48.83 666.675 49.48 668.045 50.206 669.29 50.75 670.336 51.208 671.123 51.412 672.22 51.92 673.708 52.609 675.741 53.928 677.35 54.64 678.697 55.236 679.981 55.496 681.18 56.02 682.301 56.51 683.301 57.172 684.34 57.66 685.316 58.118 686.134 58.426 687.23 58.88 688.666 59.475 690.767 60.348 692.22 60.91 693.334 61.341 694.295 61.646 695.19 62 695.941 62.297 696.56 62.57 697.24 62.87 697.92 63.17 698.526 63.484 699.27 63.8 700.155 64.175 701.322 64.583 702.21 64.95 702.955 65.258 703.507 65.473 704.25 65.84 705.192 66.306 706.444 66.974 707.38 67.58 708.203 68.113 708.799 68.738 709.6 69.24 710.445 69.77 711.492 70.136 712.34 70.66 713.142 71.155 713.963 71.815 714.57 72.28 715.003 72.611 715.243 72.805 715.66 73.16 716.252 73.663 716.932 74.41 717.76 75.04 718.796 75.828 720.6 76.82 721.47 77.42 721.959 77.758 722.164 77.91 722.59 78.25 723.196 78.734 724.034 79.551 724.73 80.09 725.343 80.565 725.913 80.871 726.53 81.34 727.228 81.87 727.904 82.596 728.69 83.13 729.511 83.688 730.536 84.065 731.37 84.6 732.164 85.109 732.872 85.757 733.59 86.25 734.234 86.692 734.692 86.956 735.47 87.44 736.729 88.224 739.136 89.578 740.44 90.48 741.342 91.103 741.849 91.598 742.64 92.19 743.539 92.862 744.363 93.497 745.56 94.29 747.352 95.477 750.609 97.181 752.44 98.48 753.761 99.417 754.34 100.004 755.68 101.14 757.952 103.066 762.16 106.879 764.74 109.07 766.621 110.667 768.041 111.696 769.68 113.14 771.402 114.657 773.206 116.562 774.82 117.98 776.177 119.172 777.477 120.094 778.68 121.14 779.788 122.103 780.591 122.872 781.79 124.01 783.488 125.622 786.384 128.488 787.86 129.94 788.712 130.778 789.202 131.265 789.87 131.93 790.538 132.595 791.293 133.269 791.87 133.93 792.375 134.508 792.695 135.127 793.18 135.65 793.659 136.166 794.273 136.542 794.76 137.05 795.25 137.561 795.685 138.132 796.11 138.71 796.542 139.297 796.937 139.926 797.33 140.55 797.724 141.176 798.101 141.816 798.47 142.46 798.841 143.106 799.131 143.7 799.55 144.42 800.081 145.333 800.882 146.381 801.43 147.48 802.012 148.647 802.47 150.188 802.91 151.25 803.236 152.037 803.571 152.618 803.8 153.29 804.011 153.91 804.018 154.446 804.26 155.13 804.589 156.062 805.29 157.273 805.74 158.32 806.166 159.311 806.532 160.364 806.9 161.25 807.21 161.994 807.483 162.544 807.79 163.29 808.156 164.179 808.584 165.488 808.93 166.24 809.154 166.727 809.325 166.968 809.56 167.41 809.865 167.983 810.268 168.827 810.6 169.39 810.859 169.829 811.087 170.156 811.35 170.53 811.617 170.909 811.893 171.224 812.19 171.65 812.563 172.186 813.068 173.111 813.39 173.51 813.563 173.724 813.636 173.758 813.84 173.96 814.271 174.387 815.193 175.368 815.86 175.94 816.445 176.441 816.935 176.823 817.6 177.24 818.393 177.737 819.34 178.147 820.34 178.66 821.542 179.276 823.087 180.112 824.32 180.68 825.356 181.158 826.185 181.429 827.23 181.89 828.474 182.439 830.031 183.135 831.28 183.78 832.398 184.358 833.364 184.938 834.39 185.55 835.42 186.164 836.541 186.919 837.45 187.46 838.165 187.886 838.675 188.135 839.39 188.56 840.299 189.1 841.648 189.822 842.45 190.46 843.054 190.941 843.309 191.451 843.89 191.91 844.592 192.465 845.636 192.913 846.44 193.47 847.217 194.009 848.014 194.597 848.64 195.19 849.184 195.705 849.525 196.219 850.03 196.78 850.614 197.429 851.415 198.283 851.95 198.85 852.329 199.252 852.603 199.53 852.93 199.87 853.257 200.21 853.573 200.493 853.91 200.89 854.328 201.382 854.813 202.121 855.21 202.63 855.53 203.039 855.797 203.362 856.1 203.72 856.403 204.079 856.717 204.429 857.03 204.78 857.344 205.132 857.66 205.483 857.98 205.83 858.3 206.177 858.704 206.544 858.95 206.86 859.133 207.095 859.2 207.275 859.37 207.52 859.597 207.848 859.993 208.296 860.21 208.64 860.378 208.908 860.455 209.182 860.6 209.39 860.72 209.562 860.865 209.654 860.99 209.82 861.137 210.015 861.255 210.306 861.41 210.5 861.548 210.672 861.718 210.773 861.86 210.94 862.017 211.125 862.138 211.385 862.3 211.57 862.45 211.742 862.639 211.851 862.79 212.02 862.95 212.199 863.055 212.393 863.23 212.62 863.47 212.932 863.836 213.436 864.11 213.71 864.306 213.906 864.456 213.981 864.67 214.16 864.969 214.41 865.379 214.769 865.73 215.08 866.082 215.392 866.516 215.737 866.78 216.03 866.972 216.242 867.044 216.403 867.22 216.63 867.462 216.942 867.75 217.353 868.11 217.72 868.551 218.17 869.226 218.589 869.72 219.09 870.216 219.592 870.665 220.246 871.08 220.73 871.419 221.125 871.705 221.44 872.02 221.79 872.335 222.139 872.594 222.535 872.97 222.83 873.37 223.145 873.933 223.333 874.37 223.6 874.776 223.848 875.226 224.128 875.51 224.37 875.706 224.537 875.791 224.701 875.96 224.85 876.141 225.009 876.34 225.115 876.57 225.29 876.883 225.528 877.386 225.889 877.66 226.16 877.856 226.353 877.943 226.543 878.11 226.71 878.277 226.877 878.493 226.993 878.66 227.16 878.827 227.327 878.943 227.543 879.11 227.71 879.277 227.877 879.493 227.993 879.66 228.16 879.827 228.327 879.942 228.544 880.11 228.71 880.279 228.877 880.503 228.992 880.67 229.16 880.836 229.326 881.11 229.71 881.11 229.71" style="fill: none; stroke: #000000; mix-blend-mode: source-over; stroke-dasharray: none; stroke-dashoffset: 0; stroke-linecap: round; stroke-linejoin: round; stroke-miterlimit: 4; stroke-opacity: 1; stroke-width: 24;"/>
<path transform="matrix(1,0,0,1,1006.6537357396543,326.9815131031307)" d="M64.35 0.02 C64.35 0.02 64.35 0.02 64.35 0.02 64.35 0.02 64.35 0.02 64.35 0.02 64.35 0.02 64.35 0.02 64.35 0.02 64.35 0.02 65.017 0.02 65.35 0.02 65.683 0.02 66.017 0.02 66.35 0.02 66.683 0.02 67.012 -0.021 67.35 0.02 67.708 0.064 68.187 0.185 68.44 0.29 68.588 0.352 68.632 0.419 68.77 0.49 68.979 0.597 69.292 0.657 69.59 0.84 70.027 1.109 70.534 1.679 71.06 2.08 71.622 2.508 72.256 2.745 72.87 3.32 73.723 4.12 74.676 5.685 75.49 6.66 76.153 7.455 76.727 8.075 77.36 8.77 77.994 9.465 78.729 10.154 79.29 10.83 79.783 11.425 80.105 11.924 80.58 12.59 81.19 13.446 81.889 14.429 82.63 15.55 83.573 16.976 84.952 19.043 85.74 20.48 86.316 21.531 86.66 22.439 87.07 23.3 87.417 24.03 87.713 24.649 88.04 25.32 88.366 25.989 88.713 26.75 89.03 27.32 89.278 27.766 89.541 28.043 89.75 28.48 89.991 28.983 90.202 29.705 90.35 30.19 90.457 30.541 90.519 30.799 90.59 31.11 90.662 31.426 90.725 31.748 90.78 32.07 90.835 32.394 90.88 32.722 90.92 33.05 90.96 33.379 90.99 33.71 91.02 34.04 91.05 34.37 91.075 34.643 91.1 35.03 91.136 35.578 91.173 36.356 91.2 37.02 91.227 37.686 91.245 38.353 91.26 39.02 91.275 39.687 91.282 40.353 91.29 41.02 91.298 41.687 91.303 42.353 91.31 43.02 91.317 43.687 91.417 44.179 91.33 45.02 91.176 46.502 90.399 49.604 89.99 51.09 89.747 51.973 89.552 52.413 89.3 53.17 88.998 54.079 88.631 55.267 88.3 56.17 88.022 56.928 87.828 57.552 87.47 58.24 87.075 58.999 86.448 59.698 85.99 60.51 85.499 61.38 85.145 62.446 84.64 63.31 84.165 64.121 83.625 64.756 83.07 65.56 82.434 66.482 81.709 67.757 81.04 68.54 80.532 69.134 79.999 69.446 79.53 69.96 79.051 70.484 78.69 71.143 78.2 71.66 77.715 72.172 77.045 72.734 76.61 73.05 76.34 73.247 76.167 73.302 75.91 73.47 75.576 73.689 75.217 73.986 74.79 74.27 74.247 74.631 73.538 75.062 72.9 75.44 72.261 75.819 71.68 76.178 70.96 76.54 70.106 76.97 69.057 77.41 68.09 77.81 67.121 78.21 66.208 78.576 65.15 78.94 63.942 79.356 62.443 79.657 61.22 80.14 60.085 80.588 59.237 81.313 58.04 81.7 56.646 82.151 55.087 82.234 53.3 82.51 50.987 82.867 47.112 83.235 45.32 83.61 44.389 83.805 44.039 83.979 43.23 84.2 42.116 84.504 40.484 84.902 39.25 85.25 38.168 85.555 37.228 85.937 36.22 86.16 35.248 86.375 34.287 86.391 33.31 86.58 32.301 86.775 31.166 87.147 30.26 87.32 29.544 87.456 28.974 87.451 28.32 87.59 27.631 87.736 26.917 88.033 26.23 88.19 25.578 88.339 24.836 88.441 24.3 88.52 23.919 88.576 23.655 88.562 23.32 88.64 22.95 88.727 22.557 88.878 22.18 89.04 21.787 89.209 21.374 89.479 21.01 89.64 20.706 89.774 20.372 89.837 20.15 89.96 19.99 90.048 19.928 90.126 19.77 90.25 19.499 90.463 19.039 90.831 18.68 91.13 18.319 91.431 18.021 91.682 17.61 92.05 17.028 92.571 16.133 93.335 15.54 93.98 15.023 94.542 14.701 95.084 14.21 95.67 13.649 96.34 12.886 97.082 12.34 97.77 11.856 98.379 11.585 98.853 11.07 99.57 10.295 100.649 8.823 102.686 8.12 103.6 7.748 104.084 7.548 104.272 7.24 104.69 6.853 105.214 6.473 105.895 6.01 106.52 5.488 107.224 4.76 107.984 4.24 108.69 3.778 109.317 3.399 110.001 3.02 110.53 2.719 110.95 2.461 111.268 2.17 111.63 1.878 111.994 1.503 112.377 1.27 112.71 1.09 112.966 1.003 113.229 0.85 113.43 0.72 113.601 0.563 113.694 0.43 113.86 0.278 114.05 0 114.52 0 114.52" style="fill: none; stroke: #000000; mix-blend-mode: source-over; stroke-dasharray: none; stroke-dashoffset: 0; stroke-linecap: round; stroke-linejoin: round; stroke-miterlimit: 4; stroke-opacity: 1; stroke-width: 24;"/>
<path transform="matrix(1,0,0,1,601,444)" d="M404 0 C404 0 404 0 404 0 404 0 404 0 404 0 404 0 403.501 0.499 403.12 0.88 402.417 1.583 401.007 3.107 400.12 3.88 399.486 4.433 398.895 4.789 398.39 5.19 397.984 5.513 397.757 5.698 397.31 6.09 396.535 6.77 395.226 7.991 394.2 8.96 393.173 9.931 392.047 11.147 391.15 11.91 390.509 12.456 390.008 12.797 389.41 13.21 388.805 13.627 388.1 13.948 387.54 14.4 387.001 14.835 386.667 15.287 386.1 15.86 385.284 16.684 384.006 17.969 383.11 18.87 382.38 19.605 381.887 20.041 381.12 20.87 379.965 22.118 378.484 24.031 376.95 25.72 375.184 27.664 372.863 30.162 371.08 31.84 369.715 33.125 368.564 33.919 367.29 35.06 365.932 36.276 364.538 37.634 363.18 38.94 361.821 40.247 360.482 41.575 359.14 42.9 357.798 44.225 356.467 45.56 355.13 46.89 353.793 48.22 352.467 49.65 351.12 50.88 349.856 52.035 348.494 53.026 347.3 54.08 346.2 55.051 345.481 55.798 344.2 56.96 342.169 58.802 338.018 62.383 336.24 64.01 335.324 64.848 334.938 65.232 334.19 65.95 333.273 66.83 332.316 67.937 331.15 68.91 329.789 70.045 328.026 71.084 326.44 72.26 324.771 73.497 322.969 74.954 321.38 76.17 319.974 77.245 318.72 78.185 317.39 79.19 316.06 80.195 314.741 81.3 313.4 82.2 312.136 83.049 310.853 83.566 309.58 84.47 308.152 85.484 306.934 86.869 305.3 88.07 303.342 89.509 300.489 91.074 298.53 92.39 296.985 93.427 295.81 94.399 294.45 95.27 293.167 96.092 291.801 96.677 290.6 97.5 289.436 98.298 288.556 99.23 287.34 100.12 285.906 101.17 284.042 102.395 282.5 103.34 281.149 104.168 279.985 104.739 278.61 105.53 277.039 106.434 275.332 107.409 273.59 108.48 271.651 109.672 269.639 111.19 267.52 112.38 265.348 113.599 262.979 114.514 260.7 115.69 258.35 116.903 255.864 118.125 253.63 119.56 251.435 120.97 249.481 122.848 247.4 124.21 245.473 125.471 243.364 126.547 241.61 127.51 240.172 128.299 238.974 128.913 237.65 129.6 236.327 130.286 235.133 130.888 233.67 131.63 231.878 132.539 229.762 133.658 227.68 134.65 225.463 135.707 222.858 136.718 220.74 137.77 218.887 138.691 217.331 139.713 215.63 140.56 213.997 141.373 212.39 142.163 210.74 142.77 209.139 143.359 207.508 143.643 205.88 144.17 204.202 144.713 202.5 145.365 200.82 145.99 199.14 146.615 197.731 147.299 195.8 147.92 193.274 148.732 189.28 149.626 186.9 150.24 185.307 150.651 184.311 150.839 182.91 151.26 181.309 151.741 179.521 152.515 177.83 153.02 176.188 153.51 174.558 153.87 172.91 154.26 171.258 154.651 169.663 154.913 167.93 155.36 166.003 155.857 163.979 156.644 161.88 157.15 159.662 157.685 157.268 158.052 154.95 158.45 152.628 158.849 150.291 159.188 147.96 159.54 145.631 159.892 143.566 160.237 140.97 160.56 137.723 160.964 132.93 161.482 129.98 161.69 127.998 161.83 126.66 161.732 125 161.88 123.324 162.03 121.722 162.427 119.97 162.59 118.069 162.767 116.07 162.798 114 162.86 111.76 162.927 109.333 162.938 107 162.96 104.667 162.982 102.411 162.983 100 162.99 97.422 162.997 94.667 162.998 92 163 89.333 163.002 86.667 163 84 163 81.333 163 78.745 163 76 163 73.088 163 69.912 163 67 163 64.255 163 62.124 163 59 163 54.582 163 47.247 163 43 163 40.191 163 38.243 163 36 163 33.923 163 32 163 30 163 28 163 26 163 24 163 22 163 19.909 163 18 163 16.257 163 14.574 163 13 163 11.592 163 10.238 163 9 163 7.928 163 7 163 6 163 5 163 3.732 163 3 163 2.577 163 2.333 163 2 163 1.667 163 1.333 163 1 163 0.667 163 0 163 0 163" style="fill: none; stroke: #000000; mix-blend-mode: source-over; stroke-dasharray: none; stroke-dashoffset: 0; stroke-linecap: round; stroke-linejoin: round; stroke-miterlimit: 4; stroke-opacity: 1; stroke-width: 24;"/>
<path transform="matrix(1,0,0,1,220.84715237753622,439.87790424601565)" d="M377.15 167.12 C377.15 167.12 377.15 167.12 377.15 167.12 377.15 167.12 376.541 167.12 376.15 167.12 375.598 167.12 374.817 167.12 374.15 167.12 373.483 167.12 372.884 167.12 372.15 167.12 371.251 167.12 370.15 167.12 369.15 167.12 368.15 167.12 367.277 167.12 366.15 167.12 364.695 167.12 362.817 167.12 361.15 167.12 359.483 167.12 358.012 167.12 356.15 167.12 353.795 167.12 350.359 167.12 348.15 167.12 346.588 167.12 345.618 167.12 344.15 167.12 342.352 167.12 340.15 167.12 338.15 167.12 336.15 167.12 334.15 167.12 332.15 167.12 330.15 167.12 328.15 167.12 326.15 167.12 324.15 167.12 322.227 167.12 320.15 167.12 317.907 167.12 315.393 167.12 313.15 167.12 311.073 167.12 309.227 167.12 307.15 167.12 304.907 167.12 302.842 167.12 300.15 167.12 296.482 167.12 290.656 167.12 287.15 167.12 284.768 167.12 283.057 167.239 281.15 167.12 279.399 167.011 277.997 166.724 276.13 166.49 273.773 166.195 270.708 165.828 268.13 165.49 265.715 165.174 263.455 164.855 261.12 164.53 258.785 164.205 256.917 164.063 254.12 163.54 249.85 162.742 242.126 160.879 238.07 159.8 235.561 159.133 234.119 158.606 232.03 157.99 229.784 157.328 227.363 156.634 225.03 155.96 222.7 155.287 220.577 154.691 218.04 153.95 215 153.062 210.94 151.881 208.03 150.98 205.765 150.279 204.454 149.906 202.01 149.04 198.105 147.656 191.961 145.178 186.95 143.21 181.938 141.241 176.165 138.876 171.94 137.23 168.869 136.033 166.608 135.313 163.96 134.19 161.251 133.041 158.996 131.988 155.87 130.4 151.389 128.124 144.055 123.728 139.78 121.57 137.029 120.181 134.989 119.447 132.88 118.38 131.034 117.446 129.469 116.528 127.78 115.57 126.089 114.611 124.415 113.617 122.74 112.63 121.065 111.644 119.399 110.645 117.73 109.65 116.062 108.655 114.385 107.756 112.73 106.66 110.997 105.512 109.271 104.173 107.57 102.89 105.868 101.606 104.097 100.292 102.52 98.96 101.039 97.709 99.728 96.441 98.36 95.15 96.991 93.858 95.668 92.428 94.31 91.21 93.034 90.065 91.747 89.163 90.46 88.03 89.091 86.826 87.711 85.37 86.34 84.17 85.052 83.043 83.563 81.948 82.48 81.02 81.664 80.321 81.147 79.767 80.38 79.13 79.515 78.412 78.399 77.661 77.53 76.95 76.76 76.321 76.102 75.642 75.41 75.1 74.799 74.621 74.225 74.242 73.61 73.84 72.991 73.435 72.276 73.126 71.71 72.68 71.169 72.254 70.706 71.676 70.27 71.24 69.906 70.876 69.578 70.493 69.27 70.24 69.043 70.053 68.815 69.969 68.63 69.81 68.46 69.664 68.357 69.48 68.19 69.33 68.01 69.168 67.81 69.058 67.58 68.88 67.267 68.638 66.825 68.226 66.49 68 66.233 67.827 65.973 67.749 65.77 67.6 65.596 67.472 65.499 67.312 65.33 67.18 65.139 67.03 64.905 66.888 64.67 66.76 64.42 66.624 64.085 66.528 63.87 66.39 63.702 66.282 63.621 66.154 63.46 66.04 63.261 65.899 63.011 65.795 62.75 65.63 62.411 65.415 62.074 65.2 61.61 64.84 60.801 64.213 59.349 62.801 58.42 62.08 57.75 61.56 57.345 61.289 56.62 60.83 55.587 60.176 53.964 59.43 52.76 58.61 51.593 57.815 50.636 56.899 49.49 56 48.237 55.018 46.939 53.95 45.53 52.95 44.01 51.871 42.199 50.823 40.66 49.77 39.234 48.794 37.957 47.736 36.6 46.86 35.32 46.033 33.954 45.354 32.75 44.63 31.666 43.978 30.699 43.449 29.69 42.72 28.601 41.934 27.518 40.87 26.46 40.04 25.481 39.272 24.45 38.601 23.57 37.9 22.791 37.28 22.127 36.605 21.43 36.07 20.814 35.598 20.239 35.297 19.62 34.83 18.92 34.302 18.241 33.652 17.46 33.04 16.575 32.347 15.299 31.463 14.57 30.9 14.115 30.548 13.897 30.375 13.48 30.02 12.888 29.515 11.955 28.656 11.38 28.13 10.974 27.758 10.701 27.55 10.35 27.17 9.915 26.699 9.373 25.852 9.01 25.48 8.803 25.268 8.634 25.197 8.47 25.03 8.304 24.861 8.198 24.685 8.02 24.47 7.771 24.169 7.345 23.728 7.11 23.4 6.931 23.15 6.816 22.947 6.69 22.7 6.558 22.442 6.445 22.162 6.34 21.88 6.231 21.589 6.135 21.285 6.05 20.98 5.964 20.672 5.893 20.356 5.83 20.04 5.766 19.723 5.718 19.402 5.67 19.08 5.621 18.755 5.578 18.428 5.54 18.1 5.502 17.771 5.51 17.447 5.44 17.11 5.364 16.742 5.182 16.341 5.08 15.98 4.988 15.654 4.917 15.356 4.85 15.04 4.783 14.723 4.771 14.458 4.68 14.08 4.544 13.514 4.279 12.681 4.04 11.99 3.799 11.294 3.426 10.474 3.24 9.92 3.119 9.558 3.099 9.327 2.98 9.01 2.841 8.639 2.578 8.206 2.43 7.84 2.305 7.53 2.262 7.312 2.13 6.96 1.926 6.415 1.507 5.577 1.29 4.9 1.089 4.272 0.96 3.559 0.85 3.04 0.771 2.669 0.744 2.304 0.67 2.08 0.628 1.952 0.585 1.931 0.53 1.79 0.399 1.45 0 0 0 0 0 0 0 0 0 0 0 0 0 0 0 0 0 0 0 0 0 0 0 0 0 0 0 0" style="fill: none; stroke: #000000; mix-blend-mode: source-over; stroke-dasharray: none; stroke-dashoffset: 0; stroke-linecap: round; stroke-linejoin: round; stroke-miterlimit: 4; stroke-opacity: 1; stroke-width: 24;"/>
<path transform="matrix(1,0,0,1,199.9828104466379,155.96421367348364)" d="M0.02 254.04 C0.02 254.04 0.02 254.04 0.02 254.04 0.02 254.04 0.02 254.04 0.02 254.04 0.02 254.04 0.02 253.373 0.02 253.04 0.02 252.707 -0.019 252.431 0.02 252.04 0.076 251.474 0.259 250.779 0.43 249.98 0.669 248.86 1.036 247.075 1.35 245.96 1.579 245.147 1.795 244.637 2.05 243.88 2.356 242.971 2.636 241.79 3.06 240.88 3.45 240.044 4.015 239.415 4.45 238.6 4.92 237.718 5.268 236.718 5.76 235.76 6.287 234.734 6.924 233.746 7.53 232.64 8.207 231.406 8.926 229.799 9.62 228.69 10.165 227.818 10.681 227.26 11.25 226.46 11.9 225.547 12.537 224.485 13.3 223.5 14.126 222.434 15.339 221.241 16.06 220.31 16.581 219.638 16.841 219.119 17.31 218.5 17.84 217.801 18.488 217.121 19.1 216.34 19.793 215.455 20.646 214.321 21.24 213.45 21.707 212.766 22.039 212.205 22.42 211.57 22.802 210.935 23.099 210.291 23.53 209.64 24.011 208.913 24.701 208.145 25.2 207.43 25.647 206.789 25.913 206.336 26.4 205.56 27.189 204.303 28.744 201.648 29.45 200.59 29.794 200.075 30.027 199.896 30.26 199.47 30.524 198.988 30.613 198.398 30.91 197.82 31.277 197.106 31.929 196.28 32.38 195.55 32.789 194.888 33.073 194.279 33.51 193.63 33.998 192.905 34.692 192.219 35.2 191.42 35.734 190.579 36.096 189.429 36.62 188.69 37.041 188.096 37.549 187.762 37.98 187.24 38.432 186.693 38.783 186.079 39.26 185.47 39.802 184.778 40.403 184.151 41.08 183.32 41.982 182.213 43.43 180.283 44.16 179.39 44.547 178.916 44.706 178.731 45.07 178.32 45.587 177.736 46.434 176.922 46.99 176.24 47.478 175.641 47.785 175.078 48.26 174.47 48.8 173.78 49.464 172.942 50.08 172.33 50.616 171.797 51.209 171.46 51.71 170.96 52.212 170.46 52.587 169.901 53.09 169.33 53.667 168.674 54.46 167.821 54.99 167.25 55.365 166.845 55.578 166.619 55.96 166.22 56.5 165.655 57.36 164.86 57.93 164.19 58.43 163.602 58.748 162.969 59.23 162.44 59.703 161.921 60.326 161.465 60.79 161.04 61.171 160.692 61.479 160.403 61.82 160.08 62.162 159.756 62.443 159.484 62.84 159.1 63.402 158.557 64.311 157.675 64.87 157.13 65.265 156.744 65.376 156.58 65.88 156.14 67.121 155.056 70.688 152.389 72.65 150.88 74.149 149.727 75.301 148.857 76.63 147.85 77.958 146.844 79.509 145.737 80.62 144.84 81.454 144.167 81.976 143.625 82.75 143 83.625 142.294 84.652 141.546 85.62 140.84 86.589 140.133 87.496 139.44 88.56 138.76 89.743 138.004 91.217 137.362 92.42 136.54 93.586 135.744 94.613 134.629 95.68 133.92 96.594 133.313 97.541 132.993 98.38 132.46 99.175 131.955 99.803 131.393 100.6 130.82 101.512 130.164 102.57 129.434 103.56 128.75 104.55 128.067 105.543 127.299 106.54 126.72 107.464 126.183 108.469 125.778 109.32 125.36 110.044 125.004 110.658 124.772 111.33 124.37 112.075 123.925 112.847 123.249 113.57 122.77 114.219 122.34 114.759 122.051 115.46 121.61 116.354 121.048 117.48 120.222 118.49 119.66 119.43 119.137 120.586 118.714 121.31 118.32 121.787 118.061 121.987 117.908 122.46 117.61 123.232 117.123 124.588 116.212 125.49 115.66 126.2 115.226 126.772 114.905 127.42 114.54 128.068 114.175 128.724 113.822 129.38 113.47 130.037 113.118 130.696 112.844 131.36 112.43 132.098 111.97 132.79 111.369 133.59 110.8 134.503 110.15 135.871 109.152 136.55 108.75 136.884 108.552 137.01 108.519 137.33 108.36 137.842 108.105 138.762 107.69 139.33 107.37 139.774 107.12 140.103 106.897 140.48 106.64 140.86 106.381 141.173 106.111 141.6 105.82 142.141 105.452 142.845 105.012 143.48 104.63 144.115 104.248 144.649 103.948 145.41 103.53 146.49 102.937 148.249 102.133 149.36 101.44 150.234 100.894 150.992 100.279 151.6 99.81 152.034 99.476 152.228 99.23 152.69 98.92 153.372 98.463 154.46 97.989 155.38 97.46 156.377 96.887 157.432 96.224 158.45 95.59 159.469 94.955 160.478 94.209 161.49 93.65 162.431 93.131 163.357 92.818 164.31 92.32 165.332 91.786 166.324 91.217 167.42 90.53 168.712 89.72 170.275 88.576 171.54 87.72 172.615 86.992 173.533 86.38 174.53 85.71 175.527 85.04 176.338 84.42 177.52 83.7 179.132 82.719 181.924 81.421 183.39 80.48 184.333 79.875 184.893 79.324 185.61 78.83 186.252 78.388 186.784 78.089 187.48 77.64 188.368 77.068 189.599 76.225 190.5 75.67 191.209 75.234 191.782 74.915 192.43 74.55 193.078 74.185 193.831 73.82 194.39 73.48 194.828 73.213 195.097 72.985 195.53 72.71 196.081 72.36 196.892 71.927 197.44 71.57 197.872 71.289 198.199 71.047 198.57 70.77 198.943 70.491 199.308 70.197 199.67 69.9 200.032 69.603 200.33 69.251 200.74 68.99 201.192 68.702 201.817 68.53 202.29 68.28 202.712 68.057 203.011 67.834 203.45 67.58 204.013 67.254 204.678 66.857 205.4 66.5 206.256 66.076 207.398 65.633 208.27 65.24 209.007 64.908 209.438 64.66 210.3 64.3 211.748 63.695 214.755 62.674 216.21 62.09 217.075 61.743 217.511 61.512 218.26 61.21 219.15 60.852 220.223 60.461 221.21 60.1 222.199 59.738 223.122 59.387 224.19 59.04 225.409 58.645 227.04 58.248 228.14 57.88 228.946 57.61 229.525 57.376 230.21 57.1 230.898 56.823 231.58 56.522 232.26 56.22 232.94 55.918 233.55 55.669 234.29 55.29 235.228 54.81 236.297 54.041 237.41 53.52 238.594 52.965 240.018 52.626 241.21 52.09 242.326 51.588 243.24 50.924 244.36 50.43 245.557 49.902 246.902 49.565 248.19 49.05 249.538 48.511 250.832 47.77 252.27 47.25 253.801 46.696 255.592 46.394 257.13 45.86 258.572 45.359 259.876 44.664 261.24 44.17 262.552 43.695 263.846 43.328 265.16 42.94 266.476 42.551 267.667 42.191 269.13 41.84 270.907 41.414 273.021 41.108 275.08 40.63 277.333 40.107 279.763 39.304 282.11 38.79 284.423 38.283 286.597 38.037 289.06 37.56 291.875 37.015 294.988 36.179 298.08 35.66 301.307 35.119 304.721 34.921 308.04 34.41 311.385 33.895 314.81 32.95 318.07 32.58 321.126 32.233 324.128 32.515 327.02 32.17 329.787 31.84 331.923 31.128 335.07 30.61 339.482 29.883 345.639 29.267 351.04 28.44 356.63 27.584 363.442 26.251 368.06 25.54 371.216 25.054 373.392 24.913 376.05 24.44 378.735 23.962 381.335 23.288 384.09 22.68 387.006 22.037 390.282 21.365 393.09 20.68 395.585 20.071 397.349 19.625 400.12 18.81 404.204 17.609 410.924 15.211 415.16 13.96 418.219 13.056 420.253 12.596 423.12 11.82 426.492 10.907 431.906 9.525 434.12 8.82 435.096 8.509 435.392 8.327 436.2 8.06 437.301 7.696 438.519 7.309 440.14 6.89 442.693 6.23 448.018 5.266 450.09 4.69 451.051 4.423 451.411 4.178 452.17 3.99 453.046 3.773 454.088 3.72 455.06 3.52 456.067 3.313 457.204 2.94 458.11 2.76 458.826 2.618 459.493 2.609 460.05 2.47 460.489 2.36 460.696 2.186 461.2 2.06 462.099 1.834 464.186 1.593 465.05 1.48 465.487 1.423 465.653 1.443 466.04 1.37 466.609 1.262 467.559 0.941 468.12 0.81 468.496 0.722 468.695 0.679 469.07 0.62 469.607 0.535 470.382 0.452 471.04 0.39 471.698 0.328 472.358 0.288 473.02 0.25 473.685 0.212 474.286 0.184 475.02 0.16 475.919 0.131 477.288 0.115 478.02 0.1 478.443 0.092 478.629 0.086 479.02 0.08 479.572 0.072 480.353 0.065 481.02 0.06 481.687 0.055 482.468 0.051 483.02 0.05 483.411 0.049 483.687 0.05 484.02 0.05 484.353 0.05 484.629 0.051 485.02 0.05 485.572 0.049 486.468 0.041 487.02 0.04 487.411 0.039 487.629 0.04 488.02 0.04 488.572 0.04 489.353 0.04 490.02 0.04 490.687 0.04 491.286 0.04 492.02 0.04 492.919 0.04 494.02 -0.042 495.02 0.04 496.033 0.123 497.05 0.415 498.06 0.54 499.053 0.663 500.038 0.728 501.03 0.79 502.024 0.852 502.951 0.879 504.02 0.91 505.256 0.946 506.503 0.887 508.02 0.98 510.033 1.104 513.182 1.573 515.03 1.72 516.234 1.816 516.951 1.839 518.02 1.88 519.256 1.927 520.782 1.95 522.02 1.97 523.092 1.987 523.948 1.992 525.02 2 526.258 2.009 527.782 2.015 529.02 2.02 530.092 2.024 531.02 2.028 532.02 2.03 533.02 2.032 534.02 2.03 535.02 2.03 536.02 2.03 537.02 2.03 538.02 2.03 539.02 2.03 540.118 1.939 541.02 2.03 541.775 2.106 542.4 2.341 543.08 2.45 543.739 2.556 544.384 2.618 545.04 2.68 545.698 2.742 546.291 2.781 547.02 2.82 547.916 2.868 549.121 2.905 550.02 2.93 550.754 2.951 551.468 2.959 552.02 2.97 552.411 2.978 552.629 2.984 553.02 2.99 553.572 2.998 554.352 2.939 555.02 3.01 555.705 3.083 556.4 3.319 557.08 3.43 557.739 3.537 558.497 3.612 559.04 3.67 559.425 3.711 559.643 3.693 560.03 3.76 560.599 3.858 561.302 4.143 562.11 4.29 563.206 4.489 564.933 4.517 566.03 4.72 566.842 4.87 567.434 5.127 568.12 5.27 568.773 5.406 569.401 5.489 570.05 5.57 570.705 5.652 571.366 5.644 572.03 5.76 572.719 5.88 573.547 6.166 574.11 6.29 574.489 6.374 574.692 6.375 575.07 6.47 575.636 6.612 576.4 6.952 577.16 7.13 578.038 7.336 579.312 7.39 580.05 7.58 580.528 7.703 580.765 7.874 581.2 8 581.745 8.158 582.444 8.3 583.08 8.41 583.724 8.521 584.48 8.53 585.04 8.66 585.477 8.762 585.747 8.932 586.18 9.05 586.729 9.2 587.437 9.271 588.08 9.44 588.762 9.619 589.402 9.929 590.16 10.11 591.037 10.32 592.17 10.37 593.05 10.57 593.809 10.742 594.33 10.961 595.14 11.19 596.253 11.505 597.792 11.91 599.12 12.26 600.448 12.61 602.001 12.95 603.11 13.29 603.922 13.539 604.433 13.765 605.19 14.03 606.096 14.347 607.182 14.72 608.18 15.06 609.179 15.4 610.009 15.676 611.18 16.07 612.835 16.626 615.722 17.694 617.17 18.08 617.972 18.294 618.426 18.294 619.07 18.46 619.755 18.636 620.401 18.876 621.16 19.12 622.073 19.413 623.45 19.894 624.17 20.1 624.566 20.213 624.731 20.221 625.1 20.33 625.659 20.495 626.422 20.856 627.18 21.05 628.054 21.274 629.183 21.334 630.06 21.54 630.818 21.718 631.464 22.006 632.15 22.17 632.796 22.324 633.414 22.354 634.06 22.51 634.746 22.675 635.389 22.977 636.15 23.15 637.031 23.351 638.075 23.398 639.05 23.59 640.058 23.788 641.193 24.155 642.1 24.33 642.819 24.468 643.331 24.473 644.05 24.61 644.957 24.783 646.087 25.161 647.1 25.34 648.084 25.514 649.056 25.512 650.04 25.68 651.052 25.852 652.078 26.112 653.09 26.37 654.108 26.629 655.046 26.936 656.13 27.23 657.368 27.566 658.885 27.923 660.12 28.27 661.2 28.573 662.062 28.873 663.14 29.18 664.373 29.531 665.887 29.796 667.12 30.25 668.26 30.67 668.981 31.249 670.3 31.76 672.314 32.541 676.382 33.549 678.15 34.16 679.069 34.478 679.42 34.625 680.22 34.96 681.353 35.435 682.927 36.271 684.28 36.8 685.577 37.307 686.868 37.595 688.17 38.09 689.527 38.606 690.819 39.34 692.26 39.85 693.796 40.394 695.424 40.71 697.13 41.22 699.037 41.79 701.147 42.595 703.16 43.13 705.13 43.654 707.104 43.907 709.08 44.41 711.098 44.924 713.214 45.682 715.14 46.19 716.869 46.646 718.536 46.976 720.1 47.35 721.506 47.687 722.989 48.002 724.1 48.33 724.912 48.57 725.423 48.79 726.18 49.05 727.088 49.362 728.107 49.733 729.18 50.07 730.402 50.454 731.903 50.842 733.13 51.21 734.206 51.533 735.243 51.834 736.15 52.15 736.91 52.415 737.535 52.669 738.22 52.95 738.908 53.232 739.691 53.546 740.27 53.84 740.719 54.068 740.991 54.271 741.43 54.52 741.996 54.84 742.867 55.343 743.39 55.59 743.723 55.748 743.926 55.75 744.23 55.93 744.67 56.19 745.253 56.752 745.7 57.13 746.085 57.456 746.494 57.772 746.76 58.06 746.952 58.268 747.2 58.65 747.2 58.65" style="fill: none; stroke: #000000; mix-blend-mode: source-over; stroke-dasharray: none; stroke-dashoffset: 0; stroke-linecap: round; stroke-linejoin: round; stroke-miterlimit: 4; stroke-opacity: 1; stroke-width: 24;"/>
<path transform="matrix(1,0,0,1,1019.9737929364478,310)" d="M9.03 0 C9.03 0 9.03 0 9.03 0 9.03 0 9.03 0 9.03 0 9.03 0 9.03 0.609 9.03 1 9.03 1.552 9.03 2.448 9.03 3 9.03 3.391 9.03 3.609 9.03 4 9.03 4.552 9.03 5.448 9.03 6 9.03 6.391 9.03 6.609 9.03 7 9.03 7.552 9.097 8.332 9.03 9 8.961 9.685 8.719 10.38 8.61 11.06 8.504 11.719 8.507 12.46 8.38 13.02 8.281 13.457 8.107 13.727 7.99 14.16 7.842 14.709 7.701 15.531 7.61 16.06 7.545 16.436 7.553 16.649 7.47 17.03 7.347 17.598 7.001 18.557 6.86 19.12 6.766 19.496 6.761 19.695 6.66 20.07 6.508 20.633 6.131 21.59 5.97 22.15 5.863 22.522 5.85 22.718 5.74 23.09 5.573 23.651 5.198 24.487 5.01 25.17 4.835 25.809 4.795 26.358 4.63 27.06 4.419 27.957 4.088 29.333 3.81 30.1 3.632 30.591 3.414 30.904 3.27 31.27 3.148 31.58 3.066 31.85 2.98 32.15 2.892 32.456 2.818 32.774 2.75 33.09 2.681 33.407 2.664 33.719 2.57 34.05 2.464 34.423 2.243 34.844 2.12 35.21 2.013 35.529 1.938 35.812 1.86 36.12 1.781 36.432 1.71 36.751 1.65 37.07 1.59 37.391 1.545 37.715 1.5 38.04 1.455 38.365 1.456 38.635 1.38 39.02 1.268 39.59 0.943 40.547 0.81 41.11 0.721 41.486 0.677 41.741 0.62 42.06 0.563 42.381 0.513 42.705 0.47 43.03 0.426 43.358 0.392 43.69 0.36 44.02 0.328 44.35 0.305 44.623 0.28 45.01 0.244 45.558 0.205 46.45 0.18 47 0.162 47.39 0.152 47.667 0.14 48 0.128 48.333 0.118 48.667 0.11 49 0.102 49.333 0.097 49.667 0.09 50 0.083 50.333 0.075 50.667 0.07 51 0.065 51.333 0.063 51.667 0.06 52 0.057 52.333 0.052 52.667 0.05 53 0.048 53.333 0.052 53.667 0.05 54 0.048 54.333 0.042 54.667 0.04 55 0.038 55.333 0.042 55.667 0.04 56 0.038 56.333 0.032 56.667 0.03 57 0.028 57.333 0.03 57.609 0.03 58 0.03 58.552 -0.039 59.437 0.03 60 0.081 60.422 0.223 60.737 0.3 61.09 0.372 61.419 0.428 61.728 0.48 62.05 0.532 62.374 0.57 62.702 0.61 63.03 0.65 63.359 0.647 63.683 0.72 64.02 0.8 64.388 0.987 64.79 1.09 65.15 1.183 65.473 1.254 65.766 1.32 66.08 1.387 66.399 1.397 66.718 1.49 67.05 1.594 67.422 1.817 67.835 1.94 68.2 2.048 68.521 2.124 68.81 2.2 69.12 2.277 69.433 2.299 69.695 2.4 70.07 2.552 70.633 2.929 71.59 3.09 72.15 3.197 72.522 3.253 72.774 3.32 73.09 3.387 73.407 3.397 73.72 3.49 74.05 3.594 74.421 3.817 74.835 3.94 75.2 4.048 75.521 4.124 75.81 4.2 76.12 4.277 76.433 4.299 76.742 4.4 77.07 4.515 77.443 4.748 77.865 4.88 78.23 4.994 78.546 5.036 78.815 5.16 79.13 5.305 79.499 5.568 79.935 5.72 80.3 5.848 80.608 5.939 80.873 6.03 81.17 6.123 81.473 6.198 81.787 6.27 82.1 6.342 82.414 6.405 82.73 6.46 83.05 6.515 83.373 6.517 83.695 6.6 84.03 6.692 84.403 6.896 84.816 7.01 85.18 7.111 85.502 7.189 85.789 7.26 86.1 7.332 86.415 7.44 87.06 7.44 87.06" style="fill: none; stroke: #000000; mix-blend-mode: source-over; stroke-dasharray: none; stroke-dashoffset: 0; stroke-linecap: round; stroke-linejoin: round; stroke-miterlimit: 4; stroke-opacity: 1; stroke-width: 24;"/>
<path transform="matrix(1,0,0,1,194,420)" d="M0 0 C0 0 0 0 0 0 0 0 0 0 0 0 0 0 0.303 0.198 0.5 0.34 0.799 0.555 1.246 0.891 1.61 1.18 1.976 1.471 2.357 1.849 2.69 2.08 2.946 2.257 3.209 2.337 3.41 2.49 3.582 2.621 3.666 2.748 3.84 2.92 4.105 3.181 4.514 3.571 4.85 3.9 5.188 4.231 5.602 4.594 5.86 4.9 6.049 5.125 6.125 5.294 6.3 5.53 6.536 5.849 6.867 6.267 7.16 6.63 7.454 6.994 7.826 7.381 8.06 7.71 8.238 7.961 8.312 8.152 8.48 8.41 8.699 8.747 9.072 9.2 9.28 9.55 9.443 9.825 9.519 10.109 9.66 10.32 9.774 10.49 9.91 10.577 10.03 10.74 10.174 10.936 10.296 11.233 10.45 11.43 10.586 11.602 10.752 11.702 10.89 11.87 11.044 12.057 11.161 12.323 11.32 12.51 11.467 12.683 11.651 12.791 11.8 12.96 11.959 13.141 12.077 13.39 12.24 13.57 12.395 13.741 12.594 13.851 12.75 14.02 12.912 14.196 13.025 14.436 13.19 14.61 13.35 14.778 13.516 14.873 13.72 15.05 14.013 15.304 14.423 15.681 14.77 16 15.116 16.318 15.483 16.714 15.8 16.96 16.038 17.145 16.278 17.233 16.47 17.39 16.641 17.529 16.734 17.66 16.91 17.84 17.174 18.11 17.569 18.514 17.9 18.85 18.232 19.187 18.647 19.549 18.9 19.86 19.087 20.091 19.17 20.323 19.33 20.51 19.476 20.681 19.662 20.782 19.81 20.95 19.97 21.132 20.25 21.57 20.25 21.57" style="fill: none; stroke: #000000; mix-blend-mode: source-over; stroke-dasharray: none; stroke-dashoffset: 0; stroke-linecap: round; stroke-linejoin: round; stroke-miterlimit: 4; stroke-opacity: 1; stroke-width: 24;"/>
</svg>