<svg viewBox="109.71428571428572 143.976 1116 464.494" xmlns:xlink="http://www.w3.org/1999/xlink" xmlns="http://www.w3.org/2000/svg" version="1.1" style="max-height: 500px" width="1116" height="464.494">
<path transform="matrix(1,0,0,1,151.97065622181898,185.26104136779276)" d="M8.03 80.74 C8.03 80.74 8.03 80.74 8.03 80.74 8.03 80.74 6.821 83.438 6.21 84.98 5.495 86.784 4.462 89.484 4.05 90.92 3.823 91.712 3.819 92.101 3.65 92.8 3.433 93.697 3.032 94.703 2.82 95.85 2.556 97.281 2.551 99.2 2.33 100.75 2.128 102.166 1.76 103.369 1.58 104.79 1.382 106.353 1.397 107.811 1.24 109.75 1.017 112.506 0.502 116.414 0.31 119.75 0.119 123.077 0.128 127.159 0.09 129.74 0.066 131.373 0.068 132.407 0.06 133.74 0.052 135.073 0.045 136.332 0.04 137.74 0.034 139.314 0.032 141.166 0.03 142.74 0.029 144.148 0.03 145.502 0.03 146.74 0.03 147.812 0.03 148.668 0.03 149.74 0.03 150.978 0.03 152.407 0.03 153.74 0.03 155.073 0.03 156.502 0.03 157.74 0.03 158.812 0.03 159.841 0.03 160.74 0.03 161.474 -0.036 162.072 0.03 162.74 0.097 163.425 0.266 164.05 0.44 164.8 0.653 165.718 0.963 166.928 1.25 167.84 1.491 168.605 1.678 169.166 2.01 169.92 2.431 170.876 3.068 172.138 3.65 173.08 4.162 173.909 4.778 174.506 5.27 175.31 5.791 176.162 6.151 177.218 6.67 178.07 7.16 178.873 7.649 179.507 8.28 180.3 9.062 181.283 10.209 182.432 11.06 183.48 11.845 184.447 12.423 185.473 13.22 186.35 14.008 187.217 14.856 187.823 15.81 188.72 17.021 189.858 18.979 191.773 19.88 192.65 20.331 193.088 20.495 193.301 20.89 193.64 21.38 194.06 21.971 194.462 22.63 194.94 23.478 195.555 24.678 196.326 25.57 197.01 26.359 197.615 26.944 198.272 27.73 198.81 28.549 199.371 29.485 199.757 30.4 200.29 31.394 200.869 32.451 201.625 33.47 202.17 34.42 202.678 35.352 202.988 36.31 203.48 37.334 204.006 38.309 204.729 39.42 205.25 40.603 205.805 42.028 206.144 43.22 206.68 44.336 207.182 45.331 207.847 46.37 208.34 47.347 208.804 48.222 209.181 49.27 209.57 50.465 210.014 51.861 210.427 53.17 210.82 54.484 211.214 55.814 211.57 57.14 211.93 58.467 212.29 59.804 212.543 61.13 212.98 62.504 213.433 63.876 214.135 65.24 214.62 66.556 215.088 67.778 215.465 69.17 215.85 70.716 216.278 72.549 216.661 74.11 217.04 75.517 217.381 76.709 217.695 78.12 218.02 79.688 218.382 81.438 218.748 83.1 219.1 84.762 219.452 86.095 219.809 88.09 220.13 91.025 220.602 95.944 220.988 99.05 221.4 101.355 221.706 102.977 222.098 105.06 222.3 107.292 222.516 109.704 222.543 112.03 222.61 114.36 222.677 116.619 222.68 119.03 222.7 121.608 222.721 124.363 222.723 127.03 222.73 129.697 222.737 132.363 222.738 135.03 222.74 137.697 222.742 140.363 222.74 143.03 222.74 145.697 222.74 148.363 222.74 151.03 222.74 153.697 222.74 156.363 222.74 159.03 222.74 161.697 222.74 164.459 222.994 167.03 222.74 169.469 222.499 171.66 221.749 174.09 221.33 176.661 220.887 179.406 220.656 182.06 220.17 184.743 219.678 187.418 218.888 190.1 218.39 192.752 217.897 195.252 217.559 198.06 217.19 201.197 216.778 204.807 216.432 208.05 216.07 211.128 215.726 213.97 215.398 217.05 215.07 220.295 214.724 223.802 214.257 227.05 214.05 230.12 213.854 233.123 213.868 236.03 213.82 238.773 213.775 241.363 213.773 244.03 213.76 246.697 213.747 249.094 213.744 252.03 213.74 255.626 213.736 260.892 213.74 264.03 213.74 266.056 213.74 267.287 213.74 269.03 213.74 270.939 213.74 273.03 213.74 275.03 213.74 277.03 213.74 278.953 213.74 281.03 213.74 283.273 213.74 285.338 213.74 288.03 213.74 291.698 213.74 297.524 213.74 301.03 213.74 303.412 213.74 304.809 213.328 307.03 213.74 310.027 214.296 314.609 216.381 317.23 217.66 318.992 218.519 320.173 219.296 321.46 220.2 322.644 221.032 323.502 221.87 324.7 222.84 326.183 224.041 327.952 225.444 329.69 226.86 331.609 228.424 333.43 229.863 335.72 231.83 338.878 234.543 343.653 239.003 346.79 241.74 349.064 243.724 350.677 245.041 352.74 246.8 354.982 248.711 357.415 250.792 359.75 252.79 362.085 254.788 364.504 256.885 366.75 258.79 368.817 260.543 370.543 261.931 372.73 263.81 375.447 266.143 379.375 269.553 381.78 271.76 383.427 273.271 384.356 274.3 385.86 275.67 387.628 277.281 389.762 279.202 391.76 280.78 393.678 282.295 395.584 283.428 397.6 284.98 399.881 286.736 402.354 288.861 404.71 290.83 407.068 292.801 409.282 294.936 411.74 296.8 414.223 298.682 416.845 300.251 419.54 302.06 422.431 304 425.251 305.945 428.54 308.07 432.445 310.592 437.184 313.347 441.48 316.15 445.854 319.003 450.256 322.302 454.55 325.05 458.575 327.626 462.803 329.761 466.46 332.2 469.77 334.408 472.749 337.024 475.62 338.96 478.032 340.587 480.04 341.627 482.47 343.17 485.289 344.959 488.219 346.994 491.52 349.1 495.439 351.601 500.702 354.62 504.48 357.15 507.538 359.197 510.358 361.364 512.59 362.99 514.17 364.141 515.137 364.905 516.62 365.96 518.399 367.226 520.649 368.918 522.56 370.04 524.204 371.006 525.93 371.65 527.34 372.41 528.497 373.033 529.339 373.604 530.44 374.22 531.669 374.907 533.306 375.885 534.38 376.33 535.073 376.617 535.635 376.666 536.16 376.87 536.598 377.04 536.89 377.264 537.33 377.43 537.86 377.63 538.459 377.799 539.14 377.94 539.992 378.116 541.08 378.23 542.06 378.33 543.047 378.431 543.974 378.488 545.04 378.54 546.273 378.6 547.699 378.623 549.03 378.65 550.362 378.677 551.697 378.688 553.03 378.7 554.363 378.712 555.792 378.715 557.03 378.72 558.102 378.724 559.131 378.729 560.03 378.73 560.764 378.731 561.296 378.729 562.03 378.73 562.929 378.731 564.03 378.738 565.03 378.74 566.03 378.742 567.131 378.74 568.03 378.74 568.764 378.74 569.296 378.74 570.03 378.74 570.929 378.74 572.03 378.823 573.03 378.74 574.043 378.656 575.164 378.35 576.07 378.23 576.796 378.134 577.315 378.154 578.04 378.04 578.952 377.897 580.085 377.62 581.1 377.37 582.118 377.12 583.132 376.914 584.14 376.54 585.206 376.145 586.277 375.577 587.32 375.03 588.374 374.478 589.219 373.905 590.43 373.24 592.085 372.331 594.891 371.051 596.37 370.13 597.32 369.539 597.74 369.063 598.6 368.5 599.692 367.785 601.242 367.087 602.44 366.26 603.604 365.456 604.639 364.533 605.7 363.62 606.765 362.703 607.895 361.637 608.82 360.77 609.577 360.061 610.108 359.464 610.86 358.81 611.706 358.075 612.649 357.391 613.67 356.6 614.878 355.663 616.333 354.661 617.65 353.56 619.047 352.392 620.429 350.947 621.81 349.76 623.111 348.642 624.393 347.652 625.7 346.62 627.006 345.589 628.425 344.591 629.65 343.57 630.778 342.63 631.681 341.691 632.8 340.74 634.015 339.708 635.298 338.638 636.69 337.62 638.193 336.521 639.996 335.459 641.53 334.4 642.952 333.418 644.242 332.469 645.59 331.49 646.939 330.509 648.281 329.514 649.62 328.52 650.958 327.527 652.277 326.425 653.62 325.53 654.888 324.686 656.255 324.101 657.45 323.27 658.61 322.463 659.636 321.449 660.7 320.63 661.687 319.871 662.736 319.101 663.61 318.51 664.296 318.046 664.852 317.78 665.49 317.33 666.206 316.825 666.966 316.199 667.68 315.6 668.396 314.999 669.088 314.364 669.78 313.73 670.474 313.094 671.158 312.515 671.84 311.79 672.606 310.976 673.387 309.895 674.12 309.05 674.772 308.299 675.281 307.854 676.01 306.96 677.174 305.531 679.106 303.146 680.26 301.16 681.334 299.312 682.312 296.869 682.8 295.48 683.07 294.712 683.088 294.327 683.28 293.64 683.527 292.756 683.886 291.384 684.18 290.62 684.369 290.13 684.479 289.844 684.74 289.45 685.061 288.966 685.639 288.426 686.04 287.98 686.38 287.602 686.669 287.283 686.99 286.94 687.312 286.596 687.586 286.317 687.97 285.92 688.513 285.358 689.286 284.474 689.94 283.89 690.512 283.379 691.275 282.928 691.65 282.57 691.863 282.367 691.896 282.273 692.1 282.04 692.512 281.571 693.525 280.375 694 279.95 694.245 279.731 694.35 279.714 694.61 279.51 695.112 279.116 696.166 278.203 696.75 277.69 697.165 277.326 697.443 277.117 697.8 276.74 698.24 276.275 698.783 275.436 699.15 275.07 699.36 274.861 699.535 274.796 699.7 274.63 699.866 274.463 699.973 274.237 700.14 274.07 700.307 273.903 700.533 273.797 700.7 273.63 700.867 273.463 700.963 273.283 701.14 273.07 701.389 272.77 701.758 272.362 702.07 272.01 702.382 271.658 702.692 271.306 703.01 270.96 703.329 270.613 703.559 270.326 703.98 269.93 704.648 269.302 706.206 268.172 706.72 267.65 706.951 267.415 707.004 267.259 707.17 267.09 707.334 266.923 707.546 266.807 707.71 266.64 707.876 266.471 707.992 266.247 708.16 266.08 708.326 265.914 708.545 265.806 708.71 265.64 708.876 265.473 708.985 265.248 709.15 265.08 709.315 264.912 709.488 264.808 709.7 264.63 709.999 264.379 710.418 264.022 710.77 263.71 711.122 263.398 711.407 263.135 711.81 262.76 712.381 262.228 713.375 261.447 713.86 260.81 714.226 260.329 714.297 259.904 714.62 259.39 715.043 258.717 715.781 257.767 716.25 257.16 716.585 256.727 716.783 256.488 717.14 256.07 717.645 255.479 718.55 254.396 719.02 253.97 719.261 253.751 719.391 253.738 719.62 253.53 720.005 253.182 720.594 252.436 721.02 251.97 721.371 251.586 721.692 251.193 721.99 250.93 722.207 250.739 722.34 250.693 722.6 250.49 723.102 250.098 724.155 249.189 724.74 248.68 725.155 248.319 725.466 247.98 725.79 247.74 726.035 247.558 726.226 247.49 726.48 247.32 726.813 247.098 727.232 246.783 727.6 246.5 727.969 246.216 728.354 245.848 728.69 245.62 728.95 245.444 729.116 245.376 729.42 245.21 729.916 244.939 730.866 244.402 731.39 244.16 731.723 244.006 731.932 243.971 732.23 243.83 732.593 243.659 732.921 243.459 733.4 243.18 734.185 242.723 735.767 241.678 736.47 241.31 736.819 241.127 736.923 241.098 737.28 240.95 737.954 240.671 739.35 240.086 740.23 239.82 740.916 239.613 741.331 239.615 742.1 239.4 743.386 239.04 745.708 238.183 747.18 237.69 748.311 237.311 749.277 237.021 750.18 236.69 750.938 236.412 751.571 236.075 752.25 235.86 752.879 235.661 753.477 235.602 754.11 235.42 754.789 235.224 755.311 234.957 756.19 234.71 757.649 234.299 760.962 233.611 762.1 233.39 762.558 233.301 762.745 233.277 763.07 233.23 763.395 233.183 763.722 233.145 764.05 233.11 764.379 233.075 764.653 233.048 765.04 233.02 765.588 232.98 766.48 232.939 767.03 232.91 767.42 232.889 767.697 232.873 768.03 232.86 768.363 232.847 768.697 232.838 769.03 232.83 769.363 232.822 769.697 232.817 770.03 232.81 770.363 232.803 770.639 232.796 771.03 232.79 771.582 232.782 772.296 232.776 773.03 232.77 773.929 232.763 774.958 232.754 776.03 232.75 777.268 232.746 779.141 232.754 780.03 232.75 780.474 232.748 780.607 232.742 781.03 232.74 781.762 232.736 783.298 232.74 784.03 232.74 784.453 232.74 784.697 232.74 785.03 232.74 785.363 232.74 785.697 232.74 786.03 232.74 786.363 232.74 786.639 232.74 787.03 232.74 787.582 232.74 788.478 232.74 789.03 232.74 789.421 232.74 789.697 232.74 790.03 232.74 790.363 232.74 790.586 232.74 791.03 232.74 791.919 232.74 793.925 232.74 795.03 232.74 795.811 232.74 796.478 232.74 797.03 232.74 797.421 232.74 797.639 232.74 798.03 232.74 798.582 232.74 799.363 232.74 800.03 232.74 800.697 232.74 801.362 232.806 802.03 232.74 802.715 232.673 803.41 232.439 804.09 232.33 804.749 232.224 805.507 232.145 806.05 232.09 806.435 232.051 806.653 232.075 807.04 232.01 807.609 231.915 808.363 231.624 809.12 231.48 810.008 231.311 811.331 231.188 812.05 231.11 812.467 231.065 812.584 231.077 813.04 231.02 814.072 230.89 816.777 230.376 818.07 230.21 818.876 230.106 819.314 230.072 820.04 230.02 820.932 229.956 822.133 229.914 823.03 229.88 823.763 229.852 824.478 229.834 825.03 229.82 825.42 229.81 825.639 229.806 826.03 229.8 826.582 229.792 827.296 229.786 828.03 229.78 828.929 229.773 830.298 229.766 831.03 229.76 831.453 229.756 831.608 229.787 832.03 229.75 832.771 229.685 833.986 229.37 835.07 229.24 836.302 229.092 837.81 229.015 839.04 228.95 840.107 228.893 840.962 228.952 842.03 228.85 843.279 228.731 844.65 228.364 846.07 228.21 847.635 228.041 849.236 228.078 851.03 227.92 853.17 227.731 856.038 227.403 858.05 227.09 859.584 226.851 860.467 226.572 862.08 226.31 864.475 225.921 868.656 225.353 871.05 225.13 872.639 224.982 873.703 225.058 875.03 224.91 876.376 224.76 877.494 224.47 879.07 224.23 881.281 223.893 884.853 223.512 887.06 223.14 888.636 222.874 889.847 222.516 891.09 222.33 892.146 222.172 892.764 222.117 894.04 222.04 896.383 221.898 901.449 221.853 904.03 221.81 905.663 221.783 906.792 221.78 908.03 221.77 909.102 221.761 909.903 221.755 911.03 221.75 912.485 221.744 914.287 221.742 916.03 221.74 917.939 221.738 920.373 221.74 922.03 221.74 923.202 221.74 924.03 221.657 925.03 221.74 926.043 221.824 927.061 221.959 928.07 222.25 929.138 222.558 930.139 223.085 931.26 223.58 932.535 224.143 934.327 224.828 935.31 225.47 935.96 225.895 936.334 226.361 936.78 226.76 937.158 227.099 937.502 227.465 937.82 227.71 938.059 227.894 938.241 227.969 938.49 228.14 938.819 228.365 939.265 228.747 939.61 228.96 939.881 229.127 940.057 229.26 940.37 229.35 940.809 229.476 941.459 229.451 942.04 229.49 942.674 229.532 943.471 229.635 944.03 229.59 944.444 229.556 944.654 229.469 945.1 229.36 945.857 229.176 947.237 228.725 948.14 228.53 948.852 228.376 949.236 228.431 950.07 228.22 951.71 227.806 955.544 226.36 957.2 225.73 958.099 225.388 958.457 225.172 959.26 224.88 960.349 224.483 962.257 224.005 963.17 223.64 963.684 223.435 963.899 223.288 964.34 223.07 964.918 222.784 965.804 222.298 966.34 222.07 966.684 221.923 966.904 221.895 967.21 221.76 967.577 221.599 967.998 221.366 968.38 221.14 968.768 220.91 969.045 220.659 969.52 220.39 970.239 219.983 971.608 219.438 972.33 219.04 972.807 218.777 973.044 218.58 973.48 218.32 974.039 217.986 974.775 217.502 975.42 217.22 976.005 216.964 976.566 216.876 977.17 216.66 977.835 216.422 978.555 216.127 979.24 215.84 979.925 215.553 980.533 215.248 981.28 214.94 982.169 214.574 983.339 214.172 984.23 213.81 984.979 213.506 985.601 213.233 986.28 212.93 986.958 212.627 987.726 212.295 988.3 211.99 988.747 211.752 989.021 211.545 989.46 211.29 990.024 210.962 990.889 210.45 991.41 210.2 991.742 210.041 991.952 210.003 992.25 209.86 992.611 209.687 993.049 209.383 993.41 209.21 993.708 209.067 993.952 209.014 994.25 208.87 994.613 208.695 995.039 208.448 995.42 208.21 995.806 207.969 996.178 207.7 996.55 207.43 996.925 207.157 997.297 206.873 997.66 206.58 998.024 206.286 998.317 205.985 998.73 205.67 999.248 205.275 999.93 204.827 1000.55 204.43 1001.173 204.03 1001.817 203.652 1002.46 203.28 1003.103 202.908 1003.698 202.675 1004.41 202.2 1005.384 201.549 1006.616 200.504 1007.68 199.6 1008.75 198.691 1009.881 197.623 1010.81 196.76 1011.57 196.054 1012.273 195.461 1012.86 194.81 1013.373 194.241 1013.695 193.75 1014.18 193.1 1014.805 192.261 1015.516 191.229 1016.28 190.18 1017.181 188.942 1018.499 187.25 1019.25 186.15 1019.749 185.419 1019.991 185.025 1020.43 184.28 1021.054 183.222 1022.184 181.203 1022.58 180.37 1022.758 179.995 1022.777 179.87 1022.92 179.53 1023.146 178.995 1023.587 178.153 1023.82 177.48 1024.034 176.862 1024.099 176.275 1024.29 175.65 1024.497 174.974 1024.859 174.129 1025.03 173.57 1025.143 173.201 1025.156 173.008 1025.27 172.64 1025.442 172.081 1025.827 171.244 1026.02 170.56 1026.2 169.921 1026.301 169.373 1026.41 168.67 1026.545 167.799 1026.647 166.608 1026.72 165.72 1026.78 164.992 1026.806 164.508 1026.84 163.73 1026.888 162.629 1026.923 161.071 1026.95 159.74 1026.977 158.408 1026.99 157.073 1027 155.74 1027.01 154.407 1027.006 153.302 1027.01 151.74 1027.016 149.531 1027.185 145.949 1027.03 143.74 1026.919 142.164 1026.664 141.282 1026.45 139.71 1026.148 137.497 1025.778 134.064 1025.42 131.71 1025.136 129.839 1024.936 128.432 1024.54 126.69 1024.1 124.754 1023.332 122.442 1022.84 120.63 1022.441 119.163 1022.136 117.876 1021.79 116.64 1021.487 115.558 1021.371 114.895 1020.89 113.61 1019.987 111.198 1017.275 105.846 1016.27 103.47 1015.735 102.205 1015.487 101.418 1015.12 100.53 1014.812 99.785 1014.536 99.236 1014.23 98.49 1013.866 97.601 1013.548 96.526 1013.1 95.54 1012.624 94.493 1011.925 93.428 1011.43 92.39 1010.966 91.416 1010.672 90.471 1010.2 89.5 1009.697 88.465 1008.98 87.296 1008.48 86.37 1008.084 85.636 1007.834 85.166 1007.43 84.39 1006.86 83.294 1006.068 81.817 1005.4 80.41 1004.667 78.867 1003.809 76.771 1003.23 75.49 1002.857 74.664 1002.657 74.289 1002.29 73.46 1001.721 72.174 1000.776 69.945 1000.2 68.5 999.759 67.394 999.517 66.662 999.09 65.55 998.531 64.096 997.658 61.829 997.12 60.53 996.774 59.695 996.536 59.236 996.23 58.49 995.866 57.601 995.462 56.431 995.1 55.54 994.796 54.791 994.513 54.069 994.22 53.49 993.993 53.04 993.783 52.709 993.54 52.33 993.294 51.946 993.031 51.63 992.75 51.2 992.392 50.653 991.952 49.846 991.59 49.3 991.304 48.869 991.114 48.599 990.78 48.17 990.306 47.561 989.479 46.615 988.97 46.03 988.609 45.615 988.355 45.387 988.03 44.98 987.625 44.472 987.234 43.804 986.76 43.19 986.224 42.496 985.574 41.819 984.96 41.04 984.265 40.157 983.604 39.118 982.82 38.15 981.97 37.102 980.874 35.925 980.02 34.99 979.32 34.224 978.73 33.613 978.08 32.93 977.43 32.247 976.664 31.451 976.12 30.89 975.735 30.494 975.518 30.273 975.13 29.88 974.582 29.324 973.691 28.424 973.14 27.87 972.75 27.479 972.53 27.261 972.14 26.87 971.589 26.316 970.701 25.414 970.15 24.86 969.76 24.469 969.483 24.193 969.15 23.86 968.817 23.527 968.483 23.193 968.15 22.86 967.817 22.527 967.492 22.252 967.15 21.86 966.726 21.374 966.241 20.635 965.84 20.13 965.517 19.724 965.171 19.382 964.94 19.05 964.763 18.797 964.695 18.601 964.53 18.34 964.315 18.001 964.015 17.573 963.74 17.2 963.465 16.826 963.102 16.438 962.88 16.1 962.708 15.839 962.628 15.575 962.48 15.37 962.354 15.196 962.236 15.107 962.07 14.93 961.816 14.66 961.482 14.306 961.1 13.91 960.558 13.349 959.667 12.448 959.12 11.89 958.733 11.496 958.46 11.217 958.13 10.88 957.8 10.543 957.568 10.258 957.14 9.87 956.46 9.253 955.202 8.251 954.36 7.63 953.698 7.142 953.155 6.863 952.53 6.4 951.826 5.878 950.954 5.128 950.36 4.63 949.938 4.277 949.617 3.947 949.29 3.71 949.043 3.53 948.855 3.458 948.6 3.29 948.266 3.069 947.841 2.759 947.47 2.48 947.098 2.199 946.643 1.882 946.37 1.61 946.176 1.417 946.107 1.271 945.93 1.06 945.68 0.762 945 0 945 0" style="fill: none; stroke: #000000; mix-blend-mode: source-over; stroke-dasharray: none; stroke-dashoffset: 0; stroke-linecap: round; stroke-linejoin: round; stroke-miterlimit: 4; stroke-opacity: 1; stroke-width: 46;"/>
<path transform="matrix(1,0,0,1,153.98151310313068,196.1285789834454)" d="M0.02 85.87 C0.02 85.87 0.02 85.87 0.02 85.87 0.02 85.87 0.02 85.87 0.02 85.87 0.02 85.87 0.02 85.87 0.02 85.87 0.02 85.87 0.02 85.203 0.02 84.87 0.02 84.537 0.02 84.203 0.02 83.87 0.02 83.537 0.02 83.203 0.02 82.87 0.02 82.537 0.02 82.203 0.02 81.87 0.02 81.537 0.02 81.203 0.02 80.87 0.02 80.537 0.02 80.261 0.02 79.87 0.02 79.318 0.02 78.604 0.02 77.87 0.02 76.971 0.02 75.769 0.02 74.87 0.02 74.136 0.02 73.422 0.02 72.87 0.02 72.479 0.02 72.203 0.02 71.87 0.02 71.537 0.02 71.203 0.02 70.87 0.02 70.537 0.02 70.203 0.02 69.87 0.02 69.537 0.02 69.203 0.02 68.87 0.02 68.537 0.02 68.203 0.02 67.87 0.02 67.537 0.02 67.203 0.02 66.87 0.02 66.537 0.02 66.203 0.02 65.87 0.02 65.537 0.02 65.261 0.02 64.87 0.02 64.318 0.02 63.422 0.02 62.87 0.02 62.479 0.02 62.203 0.02 61.87 0.02 61.537 0.02 61.293 0.02 60.87 0.02 60.138 0.02 58.602 0.02 57.87 0.02 57.447 0.02 57.203 0.02 56.87 0.02 56.537 0.02 56.261 0.02 55.87 0.02 55.318 0.02 54.422 0.02 53.87 0.02 53.479 -0.021 53.208 0.02 52.87 0.064 52.512 0.213 52.133 0.29 51.78 0.362 51.451 0.376 51.151 0.47 50.82 0.576 50.447 0.785 50.098 0.92 49.66 1.087 49.118 1.247 48.321 1.35 47.8 1.424 47.426 1.435 47.052 1.51 46.83 1.553 46.704 1.605 46.672 1.66 46.55 1.753 46.342 1.843 45.986 1.98 45.68 2.143 45.316 2.434 44.881 2.6 44.52 2.738 44.219 2.79 43.971 2.93 43.67 3.099 43.306 3.398 42.862 3.57 42.5 3.712 42.201 3.784 41.882 3.91 41.66 4.003 41.495 4.081 41.445 4.21 41.26 4.48 40.87 5.014 40.098 5.4 39.4 5.859 38.57 6.314 37.534 6.73 36.58 7.148 35.621 7.437 34.551 7.9 33.66 8.33 32.833 8.928 32.121 9.38 31.39 9.791 30.726 10.156 30.012 10.51 29.46 10.788 29.027 10.977 28.797 11.3 28.33 11.822 27.574 12.79 26.097 13.33 25.35 13.666 24.885 13.88 24.663 14.18 24.24 14.557 23.708 15.017 22.925 15.39 22.39 15.686 21.965 15.879 21.696 16.22 21.27 16.704 20.665 17.544 19.721 18.06 19.14 18.425 18.729 18.635 18.503 19.01 18.1 19.54 17.53 20.387 16.725 20.95 16.05 21.445 15.457 21.844 14.802 22.24 14.29 22.558 13.879 22.828 13.559 23.13 13.2 23.431 12.842 23.644 12.544 24.05 12.14 24.695 11.498 25.916 10.465 26.74 9.83 27.389 9.33 27.885 9.147 28.55 8.58 29.543 7.734 30.958 6.053 31.94 5.04 32.686 4.27 33.373 3.578 33.92 3.02 34.307 2.626 34.579 2.346 34.91 2.01 35.242 1.673 35.578 1.336 35.91 1 36.241 0.666 36.9 0 36.9 0" style="fill: none; stroke: #000000; mix-blend-mode: source-over; stroke-dasharray: none; stroke-dashoffset: 0; stroke-linecap: round; stroke-linejoin: round; stroke-miterlimit: 4; stroke-opacity: 1; stroke-width: 46;"/>
</svg>