<svg viewBox="591.4285714285714 272.526 224.57142857142858 209.108" xmlns:xlink="http://www.w3.org/1999/xlink" xmlns="http://www.w3.org/2000/svg" version="1.1" style="max-height: 500px" width="224.57142857142858" height="209.108">
<path transform="matrix(1,0,0,1,607.9186387207171,287.95812767369785)" d="M116.08 55.04 C116.08 55.04 116.08 55.04 116.08 55.04 116.08 55.04 116.08 55.04 116.08 55.04 116.08 55.04 116.08 55.04 116.08 55.04 116.08 55.04 114.748 55.106 114.08 55.04 113.395 54.973 112.7 54.737 112.02 54.63 111.361 54.526 110.893 54.465 110.06 54.4 108.61 54.286 105.733 54.21 104.08 54.16 102.909 54.125 102.152 54.115 101.08 54.1 99.842 54.083 98.413 54.078 97.08 54.07 95.747 54.062 94.413 54.053 93.08 54.05 91.747 54.047 90.642 54.051 89.08 54.05 86.871 54.049 83.106 54.041 81.08 54.04 79.84 54.039 79.147 53.89 78.08 54.04 76.806 54.219 75.234 54.74 73.97 55.22 72.823 55.655 71.728 56.285 70.79 56.74 70.042 57.103 69.453 57.331 68.78 57.73 68.034 58.172 67.26 58.677 66.53 59.31 65.707 60.024 64.984 60.978 64.14 61.86 63.211 62.831 61.964 63.874 61.18 64.89 60.519 65.746 60.182 66.579 59.63 67.47 59.026 68.446 58.148 69.499 57.69 70.51 57.289 71.395 57.194 72.249 56.92 73.16 56.627 74.135 56.217 75.099 55.98 76.18 55.716 77.384 55.685 78.765 55.47 80.07 55.25 81.405 54.865 82.619 54.67 84.1 54.435 85.884 54.367 88.153 54.28 90.05 54.201 91.786 54.173 93.75 54.15 95.04 54.135 95.856 54.076 96.306 54.13 97.04 54.197 97.95 54.406 99.07 54.61 100.08 54.816 101.1 54.998 102.208 55.36 103.13 55.69 103.972 56.15 104.678 56.63 105.42 57.124 106.183 57.637 106.918 58.29 107.64 59.024 108.452 59.898 109.256 60.87 110.01 61.959 110.855 63.392 111.647 64.56 112.41 65.618 113.101 66.497 113.733 67.58 114.39 68.783 115.12 70.154 116.067 71.47 116.57 72.68 117.032 73.986 117.098 75.15 117.39 76.215 117.657 77.104 118.027 78.19 118.24 79.403 118.478 80.718 118.494 82.1 118.69 83.672 118.913 85.54 119.349 87.12 119.54 88.517 119.709 89.859 119.661 91.09 119.83 92.179 119.98 93.053 120.293 94.14 120.45 95.367 120.627 96.769 120.71 98.09 120.79 99.416 120.87 100.845 120.896 102.08 120.93 103.151 120.959 104.08 121.058 105.08 120.99 106.093 120.921 107.209 120.717 108.12 120.51 108.885 120.336 109.405 120.226 110.2 119.89 111.392 119.387 113.446 118.26 114.46 117.51 115.11 117.029 115.391 116.68 115.91 116.12 116.603 115.373 117.448 114.302 118.18 113.36 118.915 112.415 119.707 111.439 120.31 110.46 120.868 109.554 121.363 108.647 121.71 107.71 122.043 106.812 122.139 106.014 122.38 104.96 122.704 103.545 123.202 101.715 123.45 99.97 123.717 98.085 123.778 95.925 123.87 94.03 123.954 92.295 123.97 90.78 124 89.04 124.033 87.132 124.038 84.697 124.05 83.04 124.059 81.868 124.065 81.112 124.07 80.04 124.076 78.802 124.265 77.369 124.08 76.04 123.888 74.666 123.371 73.287 122.9 71.93 122.42 70.547 121.804 69.258 121.22 67.82 120.576 66.236 120 64.278 119.2 62.82 118.503 61.548 117.661 60.641 116.82 59.48 115.892 58.199 114.942 56.788 113.86 55.46 112.711 54.049 111.372 52.645 110.09 51.27 108.806 49.892 107.583 48.439 106.16 47.2 104.725 45.95 103.324 45.087 101.51 43.81 99.023 42.059 94.728 38.992 92.56 37.73 91.4 37.054 90.797 36.785 89.78 36.36 88.612 35.872 87.216 35.526 85.92 35.02 84.566 34.491 83.275 33.659 81.83 33.24 80.325 32.804 78.737 32.672 77.05 32.5 75.175 32.308 72.872 32.265 71.08 32.2 69.614 32.147 68.593 31.983 67.08 32.11 65.053 32.281 62.422 32.364 60.03 33.47 56.898 34.918 53.076 38.705 50.42 41.17 48.312 43.127 46.749 44.901 45.13 46.85 43.573 48.725 42.148 50.764 40.86 52.63 39.701 54.309 38.811 55.736 37.71 57.52 36.414 59.62 34.86 62.223 33.61 64.46 32.47 66.5 31.389 68.309 30.48 70.39 29.536 72.551 28.84 75.008 28.08 77.21 27.369 79.269 26.612 81.195 26.05 83.2 25.5 85.162 25.138 87.222 24.73 89.11 24.356 90.842 23.927 92.432 23.69 94.1 23.456 95.746 23.395 97.488 23.31 99.05 23.233 100.451 23.212 101.524 23.18 103.04 23.137 105.047 22.961 108.404 23.11 110.04 23.192 110.936 23.237 111.312 23.51 112.1 23.923 113.292 24.886 115.072 25.71 116.37 26.478 117.579 27.264 118.697 28.25 119.67 29.25 120.657 30.153 121.354 31.68 122.24 34.192 123.698 39.28 125.636 42.33 126.85 44.579 127.745 46.276 128.307 48.26 129.01 50.246 129.714 52.156 130.505 54.24 131.07 56.439 131.666 58.758 131.93 61.14 132.45 63.718 133.013 66.678 133.821 69.16 134.35 71.291 134.804 73.136 135.117 75.13 135.48 77.126 135.844 79.059 136.088 81.13 136.53 83.392 137.013 85.817 137.929 88.17 138.31 90.47 138.683 92.971 138.58 95.09 138.82 96.904 139.025 98.367 139.412 100.12 139.59 102.02 139.783 104.023 139.719 106.09 139.89 108.336 140.076 111.252 140.541 113.1 140.7 114.304 140.804 115.093 140.827 116.09 140.87 117.086 140.913 118.082 140.938 119.08 140.96 120.079 140.982 120.958 141.128 122.08 141 123.563 140.831 125.834 140.271 127.17 139.75 128.113 139.382 128.718 138.967 129.46 138.49 130.223 138 130.958 137.419 131.68 136.84 132.408 136.256 133.115 135.762 133.81 135 134.672 134.055 135.646 132.607 136.33 131.48 136.908 130.527 137.298 129.732 137.73 128.72 138.226 127.558 138.755 126.246 139.08 124.87 139.436 123.364 139.557 121.65 139.7 120.02 139.845 118.374 139.885 116.702 139.94 115.04 139.995 113.375 140.01 111.614 140.03 110.04 140.048 108.632 140.053 107.373 140.06 106.04 140.067 104.707 140.067 103.508 140.07 102.04 140.074 100.242 140.198 97.947 140.08 96.04 139.972 94.289 139.693 92.767 139.45 91.02 139.183 89.105 139.057 86.998 138.53 85.01 137.98 82.937 136.911 80.885 136.16 78.84 135.426 76.839 134.765 74.77 134.07 72.87 133.429 71.117 132.898 69.504 132.15 67.84 131.373 66.113 130.399 64.396 129.47 62.7 128.539 61 127.696 59.455 126.57 57.65 125.202 55.457 123.004 52.198 121.76 50.53 121.049 49.576 120.588 49.145 119.98 48.36 119.292 47.472 118.64 46.43 117.86 45.46 117.013 44.407 116.019 43.232 115.06 42.29 114.182 41.427 113.287 40.729 112.36 39.99 111.427 39.246 110.356 38.544 109.48 37.84 108.704 37.217 108.129 36.547 107.35 36 106.541 35.432 105.613 34.965 104.7 34.51 103.773 34.048 102.87 33.648 101.83 33.25 100.64 32.795 99.144 32.264 97.93 31.97 96.905 31.722 95.75 31.606 95.04 31.51 94.628 31.454 94.476 31.436 94.06 31.4 93.337 31.338 92.075 31.265 91.08 31.22 90.082 31.175 89.08 31.152 88.08 31.13 87.08 31.108 86.08 31.102 85.08 31.09 84.08 31.078 83.08 31.067 82.08 31.06 81.08 31.053 79.982 30.963 79.08 31.05 78.325 31.123 77.814 31.234 77.02 31.46 75.869 31.787 74.157 32.541 72.89 33 71.818 33.389 70.808 33.707 69.91 34.05 69.156 34.338 68.679 34.509 67.85 34.9 66.513 35.53 64.042 36.94 62.73 37.63 61.914 38.058 61.407 38.249 60.74 38.66 60.001 39.116 59.235 39.71 58.51 40.28 57.778 40.856 57.072 41.405 56.37 42.1 55.582 42.881 54.911 43.692 54.05 44.78 52.824 46.329 50.987 48.988 49.84 50.61 49.028 51.758 48.376 52.577 47.79 53.57 47.246 54.492 46.837 55.404 46.41 56.35 45.98 57.304 45.597 58.388 45.22 59.27 44.903 60.011 44.619 60.625 44.31 61.3 43.999 61.978 43.68 62.656 43.36 63.33 43.04 64.003 42.716 64.671 42.39 65.34 42.063 66.011 41.655 66.687 41.4 67.35 41.167 67.956 41.09 68.474 40.89 69.15 40.63 70.028 40.177 71.271 39.96 72.17 39.789 72.876 39.713 73.444 39.62 74.09 39.526 74.741 39.52 75.335 39.4 76.06 39.25 76.97 38.89 78.202 38.73 79.11 38.603 79.832 38.541 80.347 38.47 81.07 38.383 81.958 38.328 83.055 38.28 84.05 38.232 85.045 38.206 85.971 38.18 87.04 38.15 88.276 38.131 89.935 38.12 91.04 38.112 91.821 38.113 92.373 38.11 93.04 38.107 93.707 38.037 94.372 38.1 95.04 38.164 95.725 38.394 96.42 38.5 97.1 38.603 97.76 38.603 98.5 38.73 99.06 38.829 99.497 38.916 99.768 39.12 100.2 39.423 100.844 40.089 101.745 40.52 102.48 40.913 103.151 41.182 103.852 41.61 104.43 42.016 104.978 42.56 105.359 43 105.88 43.459 106.423 43.819 107.101 44.3 107.63 44.771 108.148 45.301 108.59 45.85 109.03 46.413 109.481 47.029 109.895 47.64 110.3 48.255 110.708 48.779 111.033 49.53 111.47 50.594 112.089 52.231 113.016 53.45 113.61 54.471 114.107 55.36 114.457 56.33 114.85 57.303 115.244 58.169 115.541 59.28 115.97 60.732 116.531 62.838 117.521 64.29 117.94 65.354 118.247 66.05 118.272 67.13 118.48 68.565 118.757 70.471 119.13 72.14 119.46 73.808 119.79 75.47 120.233 77.14 120.46 78.787 120.684 80.196 120.654 82.09 120.82 84.648 121.044 88.903 121.573 91.1 121.74 92.363 121.836 93.021 121.851 94.09 121.89 95.324 121.935 96.749 121.96 98.08 121.98 99.412 122 100.842 122.001 102.08 122.01 103.152 122.018 104.08 122.108 105.08 122.03 106.093 121.951 107.11 121.739 108.12 121.53 109.14 121.319 110.158 121.045 111.17 120.77 112.185 120.495 113.434 120.17 114.2 119.88 114.69 119.694 114.928 119.541 115.37 119.33 115.951 119.052 116.71 118.677 117.38 118.35 118.05 118.023 118.82 117.688 119.39 117.37 119.835 117.122 120.163 116.897 120.54 116.64 120.92 116.381 121.283 116.159 121.66 115.82 122.124 115.403 122.644 114.735 123.07 114.27 123.42 113.888 123.707 113.573 124.03 113.23 124.353 112.887 124.674 112.608 125.01 112.21 125.426 111.716 125.904 110.97 126.3 110.46 126.619 110.049 126.888 109.729 127.19 109.37 127.491 109.012 127.79 108.763 128.11 108.31 128.582 107.641 129.084 106.683 129.61 105.65 130.307 104.281 131.394 102.021 131.84 100.77 132.105 100.027 132.132 99.668 132.32 98.94 132.598 97.866 133.105 96.184 133.34 94.95 133.539 93.905 133.541 93.071 133.71 92.02 133.91 90.78 134.307 89.471 134.5 87.99 134.732 86.206 134.811 83.688 134.89 82.04 134.946 80.871 134.957 80.04 134.98 79.04 135.003 78.04 135.1 77.04 135.03 76.04 134.959 75.027 134.754 74.01 134.55 73 134.344 71.98 134.071 70.962 133.8 69.95 133.528 68.936 133.307 67.926 132.92 66.92 132.511 65.855 131.842 64.785 131.38 63.74 130.944 62.754 130.661 61.867 130.21 60.82 129.673 59.574 129.068 58.108 128.34 56.77 127.573 55.36 126.512 53.86 125.69 52.58 124.989 51.488 124.38 50.565 123.72 49.56 123.06 48.555 122.389 47.631 121.73 46.55 120.998 45.349 120.372 43.764 119.55 42.66 118.83 41.692 117.93 40.978 117.17 40.2 116.479 39.492 116.007 38.955 115.18 38.18 113.939 37.016 111.591 34.963 110.35 34 109.623 33.436 109.165 33.149 108.55 32.75 107.931 32.349 107.403 32.032 106.65 31.6 105.581 30.987 103.941 30.062 102.72 29.47 101.697 28.974 100.705 28.522 99.84 28.23 99.166 28.003 98.68 27.957 97.99 27.77 97.102 27.529 95.968 27.098 94.96 26.88 93.988 26.67 93.028 26.575 92.05 26.47 91.064 26.364 90.065 26.303 89.07 26.25 88.075 26.197 86.977 26.174 86.08 26.15 85.347 26.13 84.814 26.122 84.08 26.11 83.181 26.095 81.979 26.078 81.08 26.07 80.346 26.063 79.747 26.063 79.08 26.06 78.413 26.057 77.857 25.944 77.08 26.05 75.945 26.206 74.233 26.74 72.97 27.22 71.822 27.656 70.834 28.199 69.79 28.75 68.737 29.305 67.707 29.924 66.68 30.54 65.65 31.157 64.629 31.721 63.62 32.45 62.531 33.236 61.436 34.123 60.39 35.13 59.254 36.223 58.053 37.767 57.09 38.81 56.362 39.599 55.946 39.931 55.14 40.86 53.625 42.605 50.184 46.964 48.94 48.69 48.355 49.502 48.184 49.85 47.73 50.54 47.15 51.421 46.4 52.462 45.74 53.54 45.005 54.74 44.267 56.336 43.55 57.43 42.985 58.292 42.385 58.777 41.88 59.64 41.275 60.675 40.758 62.253 40.29 63.29 39.939 64.068 39.661 64.576 39.34 65.32 38.959 66.202 38.465 67.267 38.18 68.25 37.907 69.191 37.77 70.227 37.64 71.09 37.532 71.804 37.541 72.335 37.42 73.06 37.268 73.97 36.901 75.202 36.74 76.11 36.612 76.832 36.543 77.527 36.48 78.07 36.435 78.455 36.411 78.673 36.38 79.06 36.336 79.608 36.292 80.386 36.26 81.05 36.228 81.713 36.208 82.376 36.19 83.04 36.172 83.706 36.095 84.372 36.15 85.04 36.206 85.722 36.429 86.412 36.53 87.09 36.628 87.751 36.625 88.399 36.75 89.06 36.88 89.749 37.035 90.386 37.31 91.14 37.662 92.104 38.252 93.38 38.8 94.33 39.284 95.168 39.813 95.849 40.37 96.58 40.933 97.319 41.632 98.039 42.16 98.74 42.628 99.361 42.934 100.013 43.4 100.56 43.851 101.09 44.364 101.466 44.9 101.98 45.527 102.581 46.181 103.291 46.93 103.95 47.772 104.691 48.983 105.467 49.73 106.18 50.303 106.728 50.551 107.273 51.12 107.77 51.792 108.357 52.665 108.761 53.58 109.39 54.772 110.209 56.388 111.422 57.64 112.3 58.703 113.046 59.712 113.662 60.61 114.34 61.402 114.938 61.778 115.497 62.77 116.13 64.488 117.227 68.651 118.921 70.37 119.75 71.256 120.177 71.641 120.401 72.38 120.73 73.257 121.12 74.32 121.53 75.3 121.91 76.283 122.291 77.277 122.653 78.27 123.01 79.261 123.366 80.179 123.788 81.25 124.05 82.441 124.341 83.904 124.379 85.11 124.61 86.191 124.817 87.072 125.155 88.16 125.34 89.383 125.547 90.876 125.546 92.1 125.74 93.187 125.912 94.063 126.232 95.15 126.4 96.374 126.589 97.997 126.689 99.09 126.77 99.868 126.828 100.356 126.85 101.09 126.88 101.987 126.917 103.082 126.94 104.08 126.96 105.079 126.98 106.008 126.99 107.08 127 108.318 127.011 109.747 127.109 111.08 127.02 112.424 126.93 113.77 126.689 115.11 126.46 116.457 126.23 117.895 125.934 119.14 125.64 120.229 125.383 121.169 125.023 122.18 124.82 123.159 124.624 124.128 124.609 125.11 124.43 126.121 124.246 127.147 123.981 128.16 123.72 129.177 123.458 130.289 123.158 131.2 122.86 131.962 122.611 132.516 122.363 133.27 122.09 134.172 121.763 135.493 121.369 136.25 121.04 136.739 120.828 137.037 120.654 137.42 120.43 137.811 120.202 138.195 119.944 138.57 119.68 138.948 119.414 139.255 119.135 139.68 118.84 140.216 118.468 141.085 118.094 141.55 117.65 141.92 117.297 142.08 116.875 142.36 116.5 142.64 116.125 142.926 115.822 143.23 115.4 143.611 114.87 144.049 114.245 144.44 113.55 144.904 112.727 145.448 111.7 145.78 110.75 146.098 109.839 146.259 108.915 146.42 107.97 146.584 107.006 146.668 106.007 146.75 105.02 146.832 104.03 146.868 103.162 146.91 102.04 146.965 100.588 146.995 98.707 147.02 97.04 147.045 95.373 147.052 93.783 147.06 92.04 147.069 90.131 147.178 88.039 147.07 86.04 146.962 84.032 146.881 82.01 146.41 80.02 145.919 77.945 144.852 75.894 144.12 73.85 143.403 71.848 142.862 69.771 142.06 67.88 141.292 66.07 140.355 64.422 139.44 62.72 138.522 61.012 137.664 59.525 136.56 57.65 135.156 55.266 132.925 51.635 131.65 49.6 130.862 48.342 130.349 47.655 129.7 46.57 128.978 45.363 128.349 43.883 127.54 42.67 126.757 41.495 125.747 40.548 124.94 39.39 124.11 38.199 123.38 36.798 122.64 35.61 121.972 34.538 121.355 33.483 120.7 32.57 120.123 31.766 119.712 31.207 118.95 30.39 117.802 29.159 115.501 27.069 114.29 26.08 113.578 25.499 113.121 25.278 112.51 24.8 111.819 24.259 111.057 23.414 110.37 22.98 109.834 22.642 109.362 22.535 108.81 22.28 108.179 21.988 107.462 21.642 106.79 21.32 106.119 20.999 105.52 20.61 104.78 20.35 103.945 20.056 102.952 19.95 102.01 19.71 101.017 19.457 99.98 19.071 98.97 18.86 97.994 18.656 97.03 18.552 96.05 18.45 95.064 18.348 94.065 18.302 93.07 18.25 92.075 18.198 90.977 18.165 90.08 18.14 89.347 18.119 88.814 18.111 88.08 18.1 87.181 18.087 86.08 18.077 85.08 18.07 84.08 18.063 82.983 17.975 82.08 18.06 81.325 18.131 80.707 18.22 80.02 18.46 79.26 18.726 78.479 19.191 77.74 19.65 76.974 20.126 76.303 20.644 75.51 21.28 74.53 22.066 73.283 23.105 72.34 24.06 71.474 24.936 70.855 25.839 70.03 26.76 69.129 27.765 68.008 28.734 67.13 29.85 66.235 30.987 65.655 32.292 64.72 33.53 63.664 34.928 62.088 36.615 61.05 37.77 60.313 38.59 59.835 39.087 59.12 39.84 58.244 40.762 57.058 41.981 56.17 42.89 55.446 43.631 54.853 44.231 54.19 44.9 53.526 45.571 52.93 46.241 52.19 46.91 51.359 47.661 50.271 48.434 49.42 49.16 48.663 49.805 48.013 50.404 47.32 51.04 46.626 51.677 45.826 52.441 45.26 52.98 44.86 53.361 44.636 53.575 44.24 53.96 43.679 54.504 42.776 55.393 42.22 55.94 41.828 56.326 41.529 56.676 41.22 56.93 40.99 57.119 40.813 57.195 40.57 57.37 40.246 57.603 39.735 57.955 39.46 58.22 39.267 58.406 39.196 58.545 39.02 58.75 38.768 59.043 38.371 59.533 38.08 59.8 37.868 59.994 37.707 60.072 37.48 60.25 37.17 60.494 36.672 60.864 36.4 61.14 36.205 61.337 36.128 61.485 35.95 61.7 35.701 62.001 35.275 62.442 35.04 62.77 34.861 63.02 34.788 63.213 34.62 63.47 34.401 63.804 34.051 64.164 33.82 64.59 33.557 65.075 33.33 65.776 33.17 66.25 33.053 66.595 32.986 66.852 32.91 67.16 32.833 67.472 32.77 67.791 32.71 68.11 32.65 68.431 32.599 68.699 32.55 69.08 32.481 69.622 32.42 70.399 32.37 71.06 32.32 71.722 32.278 72.501 32.25 73.05 32.231 73.437 32.223 73.653 32.21 74.04 32.192 74.591 32.173 75.373 32.16 76.04 32.147 76.707 32.138 77.373 32.13 78.04 32.122 78.707 32.116 79.488 32.11 80.04 32.106 80.431 32.103 80.596 32.1 81.04 32.094 81.929 31.98 84.13 32.09 85.04 32.148 85.522 32.235 85.712 32.36 86.13 32.535 86.716 32.827 87.522 33.09 88.21 33.354 88.902 33.647 89.587 33.94 90.27 34.233 90.954 34.476 91.568 34.85 92.31 35.323 93.25 36.103 94.506 36.61 95.43 37.01 96.159 37.243 96.738 37.66 97.4 38.124 98.137 38.803 98.827 39.3 99.63 39.825 100.477 40.189 101.521 40.71 102.37 41.204 103.174 41.763 103.808 42.33 104.61 42.978 105.525 43.806 106.683 44.38 107.57 44.831 108.268 45.087 108.912 45.53 109.48 45.953 110.022 46.446 110.346 46.96 110.92 47.641 111.681 48.384 112.843 49.2 113.7 50.012 114.553 51.018 115.208 51.84 116.05 52.665 116.894 53.407 118.036 54.14 118.76 54.707 119.321 55.207 119.621 55.78 120.12 56.439 120.693 57.098 121.38 57.86 122.02 58.72 122.742 59.833 123.496 60.7 124.21 61.469 124.843 62.127 125.528 62.82 126.07 63.431 126.548 63.895 126.861 64.62 127.32 65.653 127.974 67.406 128.938 68.48 129.54 69.24 129.966 69.714 130.257 70.44 130.61 71.301 131.029 72.358 131.543 73.33 131.85 74.259 132.144 75.187 132.212 76.14 132.44 77.139 132.679 78.178 132.972 79.19 133.26 80.201 133.548 81.205 133.945 82.21 134.17 83.179 134.387 84.067 134.414 85.11 134.6 86.346 134.82 87.895 135.248 89.14 135.44 90.198 135.603 91.11 135.665 92.1 135.74 93.093 135.815 94.194 135.854 95.09 135.89 95.82 135.919 96.349 135.933 97.08 135.95 97.978 135.971 99.179 136.08 100.08 136 100.832 135.934 101.382 135.771 102.13 135.6 103.049 135.39 104.266 135.082 105.18 134.8 105.945 134.564 106.503 134.326 107.26 134.06 108.166 133.741 109.342 133.451 110.25 133.02 111.085 132.624 111.792 132.135 112.53 131.62 113.283 131.094 114.005 130.487 114.72 129.89 115.438 129.291 116.135 128.735 116.83 128.03 117.611 127.238 118.402 126.334 119.14 125.33 119.963 124.21 120.842 123.113 121.49 121.58 122.353 119.538 122.989 116.084 123.36 113.95 123.623 112.438 123.669 111.477 123.77 110.03 123.894 108.246 123.935 105.836 123.98 104.04 124.017 102.573 124.12 101.373 124.04 100.04 123.959 98.696 123.717 97.35 123.49 96.01 123.261 94.663 123.053 93.317 122.67 91.98 122.274 90.596 121.695 89.117 121.13 87.85 120.622 86.712 119.971 85.738 119.48 84.7 119.018 83.723 118.727 82.574 118.25 81.8 117.878 81.196 117.472 80.866 117.01 80.34 116.449 79.701 115.641 78.821 115.11 78.25 114.735 77.847 114.439 77.489 114.14 77.23 113.92 77.04 113.786 76.967 113.52 76.79 113.065 76.488 112.261 75.921 111.63 75.62 111.061 75.348 110.511 75.182 109.92 75.02 109.309 74.853 108.549 74.734 108.02 74.64 107.644 74.573 107.431 74.537 107.05 74.49 106.507 74.423 105.619 74.354 105.07 74.31 104.68 74.279 104.46 74.262 104.07 74.24 103.52 74.21 102.638 74.109 102.08 74.16 101.666 74.197 101.421 74.247 101.01 74.4 100.379 74.635 99.38 75.154 98.73 75.62 98.158 76.03 97.728 76.491 97.27 76.99 96.796 77.508 96.427 78.034 95.94 78.68 95.309 79.517 94.428 80.624 93.83 81.61 93.277 82.522 92.768 83.535 92.44 84.37 92.185 85.018 92.124 85.487 91.92 86.16 91.655 87.037 91.203 88.175 90.97 89.18 90.746 90.148 90.64 91.105 90.53 92.08 90.419 93.062 90.363 94.158 90.31 95.05 90.267 95.779 90.245 96.376 90.22 97.04 90.195 97.706 90.174 98.488 90.16 99.04 90.15 99.43 90.145 99.707 90.14 100.04 90.135 100.373 90.133 100.707 90.13 101.04 90.127 101.373 90.082 101.702 90.12 102.04 90.16 102.398 90.259 102.766 90.38 103.13 90.508 103.516 90.636 103.899 90.88 104.29 91.182 104.774 91.787 105.425 92.14 105.76 92.355 105.964 92.46 106.054 92.71 106.2 93.1 106.428 93.757 106.694 94.32 106.88 94.908 107.074 95.652 107.219 96.17 107.33 96.541 107.41 96.752 107.454 97.13 107.51 97.669 107.589 98.555 107.669 99.1 107.72 99.486 107.756 99.944 107.812 100.09 107.8 100.132 107.797 100.13 107.798 100.17 107.78 100.357 107.694 101.159 107.161 101.62 106.76 102.119 106.325 102.673 105.774 103.04 105.24 103.369 104.762 103.561 104.33 103.77 103.74 104.042 102.97 104.245 101.98 104.41 100.97 104.604 99.778 104.7 98.254 104.79 97.03 104.868 95.966 104.903 95.038 104.94 94.04 104.977 93.041 104.993 91.939 105.01 91.04 105.024 90.306 105.098 89.708 105.04 89.04 104.981 88.358 104.82 87.738 104.65 86.99 104.441 86.071 104.216 84.861 103.84 83.94 103.498 83.101 103.033 82.4 102.55 81.66 102.053 80.899 101.472 80.162 100.89 79.44 100.303 78.712 99.663 77.919 99.04 77.31 98.498 76.781 97.975 76.447 97.4 75.95 96.738 75.378 95.986 74.613 95.3 74.06 94.696 73.573 93.998 73.069 93.52 72.78 93.222 72.6 93.074 72.523 92.76 72.4 92.294 72.218 91.574 72.021 90.96 71.88 90.334 71.736 89.574 71.631 89.04 71.55 88.66 71.492 88.388 71.457 88.06 71.42 87.731 71.383 87.403 71.317 87.07 71.33 86.727 71.344 86.323 71.371 86.03 71.51 85.762 71.637 85.607 71.872 85.36 72.09 85.048 72.365 84.607 72.657 84.31 73.03 83.994 73.426 83.814 73.866 83.54 74.42 83.155 75.198 82.589 76.321 82.28 77.29 81.984 78.219 81.928 79.156 81.7 80.11 81.461 81.108 81.065 82.247 80.87 83.15 80.716 83.862 80.643 84.431 80.56 85.08 80.476 85.734 80.423 86.332 80.37 87.06 80.305 87.954 80.257 89.053 80.22 90.05 80.183 91.046 80.167 92.143 80.15 93.04 80.136 93.773 80.127 94.373 80.12 95.04 80.113 95.707 80.047 96.372 80.11 97.04 80.174 97.725 80.34 98.518 80.51 99.1 80.641 99.549 80.739 99.87 80.97 100.26 81.255 100.741 81.839 101.384 82.18 101.72 82.39 101.927 82.536 102.031 82.74 102.17 82.96 102.319 83.159 102.484 83.46 102.58 83.885 102.715 84.525 102.807 85.1 102.74 85.774 102.662 86.535 102.455 87.24 102.01 88.171 101.422 89.061 100.223 89.99 99.19 91.035 98.028 92.231 96.656 93.17 95.35 94.054 94.12 94.857 92.873 95.5 91.59 96.115 90.364 96.532 89.012 96.98 87.83 97.376 86.784 97.795 85.852 98.06 84.86 98.314 83.909 98.353 82.965 98.56 82 98.776 80.996 99.157 79.856 99.34 78.95 99.485 78.235 99.552 77.661 99.63 77.01 99.709 76.354 99.762 75.691 99.81 75.03 99.858 74.368 99.892 73.704 99.92 73.04 99.948 72.374 100.034 71.6 99.98 71.04 99.94 70.625 99.899 70.337 99.74 69.97 99.539 69.507 99.081 68.975 98.76 68.53 98.472 68.132 98.256 67.734 97.91 67.42 97.551 67.093 97.154 66.853 96.63 66.62 95.921 66.305 94.791 66.045 93.97 65.86 93.28 65.705 92.801 65.63 92.04 65.54 90.955 65.412 88.952 65.318 88.07 65.26 87.63 65.231 87.468 65.218 87.08 65.2 86.529 65.175 85.632 65.157 85.08 65.14 84.689 65.128 84.471 65.08 84.08 65.11 83.516 65.153 82.61 65.323 82.03 65.49 81.581 65.619 81.261 65.72 80.87 65.95 80.389 66.233 79.857 66.774 79.41 67.15 79.024 67.475 78.701 67.7 78.34 68.07 77.896 68.525 77.421 69.08 76.99 69.72 76.473 70.487 75.867 71.591 75.52 72.41 75.25 73.047 75.124 73.511 74.97 74.18 74.777 75.022 74.722 76.105 74.53 77.08 74.332 78.088 73.973 79.118 73.79 80.13 73.613 81.111 73.528 82.077 73.44 83.06 73.351 84.05 73.303 85.154 73.26 86.05 73.225 86.78 73.21 87.309 73.19 88.04 73.165 88.938 73.143 90.141 73.13 91.04 73.119 91.774 73.115 92.306 73.11 93.04 73.104 93.939 73.015 95.137 73.1 96.04 73.171 96.795 73.202 97.413 73.5 98.1 73.863 98.936 74.701 99.919 75.32 100.61 75.829 101.178 76.258 101.572 76.87 102.02 77.606 102.559 78.585 103.164 79.49 103.54 80.358 103.9 81.192 104.072 82.18 104.26 83.357 104.484 84.715 104.515 86.1 104.71 87.673 104.932 89.662 105.369 91.12 105.55 92.236 105.688 93.098 105.811 94.09 105.79 95.091 105.769 96.03 105.665 97.1 105.42 98.384 105.126 99.881 104.628 101.24 104.01 102.68 103.356 104.03 102.499 105.49 101.55 107.154 100.468 109.318 98.848 110.65 97.8 111.534 97.104 112.167 96.68 112.79 95.98 113.427 95.264 113.936 94.311 114.42 93.54 114.842 92.868 115.18 92.334 115.55 91.62 115.989 90.774 116.434 89.804 116.84 88.77 117.305 87.587 117.843 86.1 118.14 84.89 118.391 83.867 118.484 82.972 118.6 82 118.718 81.019 118.778 80.094 118.84 79.03 118.911 77.799 118.947 76.371 118.98 75.04 119.013 73.708 119.027 72.373 119.04 71.04 119.053 69.707 119.262 68.59 119.06 67.04 118.768 64.795 117.62 61.169 116.87 58.94 116.324 57.317 115.853 56.316 115.2 54.82 114.399 52.985 113.326 50.772 112.36 48.76 111.393 46.745 110.404 44.649 109.4 42.74 108.465 40.962 107.632 39.239 106.55 37.66 105.49 36.113 104.13 34.656 102.99 33.35 101.998 32.214 101.161 31.337 100.12 30.24 98.916 28.971 97.399 27.314 96.17 26.19 95.195 25.298 94.352 24.668 93.41 23.94 92.462 23.208 91.384 22.508 90.5 21.81 89.72 21.194 89.057 20.525 88.36 19.99 87.744 19.517 87.234 19.142 86.55 18.74 85.738 18.263 84.62 17.79 83.77 17.37 83.048 17.014 82.505 16.713 81.77 16.38 80.897 15.984 79.742 15.558 78.86 15.18 78.117 14.861 77.491 14.506 76.82 14.27 76.202 14.053 75.612 13.918 74.99 13.79 74.356 13.66 73.704 13.644 73.05 13.5 72.361 13.349 71.646 13.05 70.96 12.89 70.311 12.738 69.832 12.645 69.04 12.55 67.775 12.398 65.365 12.294 64.08 12.23 63.265 12.189 62.747 12.18 62.08 12.16 61.413 12.14 60.748 12.057 60.08 12.11 59.398 12.164 58.778 12.385 58.03 12.49 57.136 12.615 55.964 12.615 55.07 12.77 54.31 12.902 53.744 13.032 52.99 13.3 52.025 13.643 50.74 14.337 49.8 14.78 49.052 15.132 48.459 15.415 47.79 15.74 47.119 16.065 46.519 16.399 45.78 16.73 44.904 17.122 43.606 17.551 42.86 17.91 42.373 18.145 42.132 18.327 41.69 18.57 41.122 18.882 40.29 19.286 39.73 19.62 39.289 19.883 39.053 20.066 38.58 20.38 37.815 20.888 36.583 21.808 35.58 22.38 34.649 22.911 33.643 23.222 32.78 23.73 31.968 24.208 31.339 24.837 30.53 25.32 29.673 25.832 28.616 26.186 27.76 26.7 26.953 27.185 26.247 27.735 25.52 28.3 24.787 28.871 23.967 29.602 23.38 30.11 22.963 30.471 22.73 30.726 22.32 31.05 21.811 31.453 21.069 31.838 20.53 32.31 20.005 32.77 19.631 33.365 19.12 33.84 18.599 34.323 17.802 34.817 17.43 35.18 17.218 35.387 17.158 35.511 16.98 35.72 16.729 36.015 16.297 36.454 16.06 36.78 15.879 37.029 15.809 37.223 15.64 37.48 15.42 37.814 15.041 38.254 14.83 38.6 14.663 38.874 14.565 39.053 14.44 39.37 14.256 39.836 14.049 40.655 13.92 41.16 13.827 41.525 13.775 41.735 13.71 42.11 13.617 42.645 13.519 43.527 13.46 44.07 13.418 44.455 13.399 44.673 13.37 45.06 13.329 45.608 13.282 46.386 13.25 47.05 13.218 47.713 13.199 48.309 13.18 49.04 13.157 49.938 13.142 51.141 13.13 52.04 13.12 52.774 13.115 53.306 13.11 54.04 13.104 54.939 13.104 56.141 13.1 57.04 13.097 57.774 13.092 58.306 13.09 59.04 13.088 59.939 13.092 61.04 13.09 62.04 13.088 63.04 13.005 63.969 13.08 65.04 13.167 66.287 13.521 67.652 13.66 69.07 13.814 70.639 13.737 72.755 13.92 74.05 14.039 74.895 14.204 75.434 14.4 76.12 14.599 76.818 14.919 77.442 15.11 78.2 15.33 79.074 15.389 80.11 15.59 81.08 15.799 82.086 16.074 83.216 16.35 84.13 16.581 84.896 16.826 85.522 17.09 86.21 17.356 86.902 17.721 87.593 17.94 88.27 18.142 88.895 18.197 89.489 18.38 90.12 18.578 90.8 18.849 91.621 19.1 92.21 19.294 92.664 19.474 92.939 19.7 93.38 19.995 93.956 20.381 94.706 20.72 95.37 21.058 96.033 21.497 96.826 21.73 97.36 21.88 97.704 21.915 97.853 22.05 98.23 22.299 98.926 22.658 100.304 23.09 101.21 23.488 102.045 23.987 102.679 24.5 103.49 25.095 104.431 25.898 105.51 26.46 106.52 26.982 107.457 27.293 108.38 27.79 109.33 28.324 110.351 29.065 111.518 29.58 112.44 29.987 113.169 30.297 113.682 30.65 114.41 31.068 115.271 31.409 116.409 31.89 117.29 32.338 118.112 32.87 118.743 33.41 119.55 34.032 120.479 34.846 121.656 35.41 122.55 35.853 123.252 36.11 123.813 36.55 124.46 37.042 125.184 37.767 126.07 38.25 126.67 38.592 127.095 38.789 127.328 39.15 127.74 39.663 128.326 40.528 129.257 41.06 129.83 41.436 130.235 41.649 130.46 42.03 130.86 42.568 131.424 43.336 132.306 43.99 132.89 44.563 133.402 45.056 133.726 45.71 134.21 46.553 134.834 47.761 135.716 48.64 136.3 49.331 136.759 49.892 137.093 50.53 137.47 51.169 137.847 51.915 138.215 52.47 138.56 52.907 138.832 53.177 139.061 53.61 139.34 54.159 139.693 54.801 140.115 55.51 140.49 56.351 140.935 57.495 141.482 58.35 141.79 59.016 142.03 59.554 142.085 60.18 142.28 60.855 142.49 61.503 142.754 62.26 143.02 63.166 143.339 64.35 143.72 65.25 144.06 66.005 144.345 66.559 144.607 67.31 144.9 68.205 145.249 69.28 145.642 70.27 146 71.26 146.358 72.124 146.709 73.25 147.05 74.677 147.482 76.9 148.044 78.17 148.3 78.96 148.459 79.393 148.509 80.11 148.59 80.996 148.69 82.024 148.762 83.09 148.82 84.322 148.888 85.749 148.92 87.08 148.95 88.412 148.98 89.672 148.987 91.08 149 92.654 149.015 94.506 149.023 96.08 149.03 97.488 149.036 98.672 149.038 100.08 149.04 101.654 149.042 103.625 149.04 105.08 149.04 106.207 149.04 106.953 149.04 108.08 149.04 109.535 149.04 111.413 149.04 113.08 149.04 114.747 149.04 116.789 149.04 118.08 149.04 118.897 149.04 119.346 149.04 120.08 149.04 120.979 149.04 122.08 149.04 123.08 149.04 124.08 149.04 125.08 149.04 126.08 149.04 127.08 149.04 128.181 149.04 129.08 149.04 129.814 149.04 130.346 149.1 131.08 149.04 131.99 148.966 133.207 148.752 134.12 148.54 134.888 148.362 135.519 148.147 136.21 147.91 136.906 147.671 137.594 147.39 138.28 147.11 138.968 146.83 139.647 146.602 140.33 146.23 141.084 145.819 141.862 145.17 142.59 144.71 143.247 144.295 143.854 144.019 144.5 143.58 145.225 143.088 146.109 142.355 146.71 141.87 147.135 141.527 147.51 141.249 147.78 140.97 147.975 140.769 148.052 140.618 148.23 140.4 148.478 140.097 148.905 139.658 149.14 139.33 149.319 139.08 149.393 138.889 149.56 138.63 149.778 138.293 150.12 137.92 150.35 137.49 150.61 137.004 150.84 136.312 151 135.84 151.117 135.495 151.141 135.247 151.26 134.93 151.399 134.559 151.662 134.126 151.81 133.76 151.935 133.45 152.015 133.233 152.11 132.88 152.247 132.371 152.389 131.62 152.49 130.98 152.592 130.334 152.663 129.563 152.72 129.02 152.76 128.635 152.781 128.449 152.81 128.03 152.86 127.302 152.918 125.937 152.95 125.04 152.976 124.307 152.986 123.774 153 123.04 153.017 122.141 153.03 121.04 153.04 120.04 153.05 119.04 153.055 118.04 153.06 117.04 153.065 116.04 153.066 114.939 153.07 114.04 153.073 113.306 153.139 112.773 153.08 112.04 153.006 111.13 152.78 110.01 152.57 109 152.358 107.98 152.081 107.035 151.81 105.95 151.5 104.707 151.143 103.061 150.81 101.95 150.566 101.138 150.343 100.558 150.08 99.87 149.816 99.178 149.525 98.562 149.23 97.81 148.879 96.915 148.487 95.742 148.13 94.85 147.83 94.1 147.475 93.475 147.25 92.8 147.042 92.176 146.987 91.58 146.8 90.95 146.599 90.272 146.394 89.624 146.07 88.87 145.659 87.914 144.933 86.75 144.45 85.71 143.996 84.732 143.622 83.688 143.24 82.81 142.918 82.07 142.633 81.455 142.32 80.78 142.006 80.102 141.606 79.418 141.36 78.75 141.135 78.139 141.067 77.56 140.87 76.94 140.656 76.266 140.442 75.614 140.11 74.86 139.689 73.904 138.951 72.633 138.47 71.7 138.089 70.961 137.789 70.374 137.45 69.71 137.112 69.047 136.776 68.384 136.44 67.72 136.103 67.054 135.765 66.387 135.43 65.72 135.095 65.054 134.763 64.387 134.43 63.72 134.097 63.053 133.765 62.386 133.43 61.72 133.095 61.053 132.743 60.288 132.42 59.72 132.168 59.277 131.988 59.073 131.69 58.57 131.15 57.661 130.229 55.626 129.53 54.67 129.061 54.028 128.572 53.651 128.15 53.21 127.797 52.841 127.506 52.595 127.17 52.2 126.752 51.708 126.352 51.053 125.87 50.45 125.323 49.765 124.662 49.095 124.04 48.32 123.336 47.443 122.585 46.41 121.88 45.44 121.175 44.47 120.494 43.392 119.81 42.5 119.205 41.711 118.623 40.956 118.01 40.34 117.477 39.804 116.952 39.47 116.38 38.97 115.721 38.394 114.978 37.713 114.29 37.07 113.601 36.426 112.922 35.677 112.25 35.11 111.661 34.613 111.102 34.23 110.5 33.82 109.892 33.406 109.323 33.023 108.62 32.64 107.787 32.186 106.66 31.73 105.8 31.32 105.069 30.972 104.522 30.668 103.78 30.34 102.902 29.952 101.839 29.46 100.86 29.17 99.922 28.892 98.988 28.83 98.03 28.61 97.029 28.38 95.992 28.008 94.98 27.81 94.002 27.619 93.04 27.607 92.06 27.43 91.047 27.247 90.268 26.905 89 26.72 86.985 26.426 82.846 26.32 81.08 26.23 80.193 26.185 79.861 26.171 79.08 26.15 77.976 26.12 76.318 26.103 75.08 26.09 74.008 26.078 73.152 26.076 72.08 26.07 70.842 26.063 69.486 25.967 68.08 26.05 66.499 26.143 64.637 26.418 63.06 26.67 61.639 26.897 60.276 27.173 59.03 27.46 57.938 27.712 57.061 27.911 55.98 28.27 54.7 28.695 53.132 29.435 51.87 29.92 50.803 30.33 49.891 30.572 48.9 31.01 47.848 31.475 46.78 32.17 45.74 32.66 44.765 33.12 43.728 33.497 42.85 33.88 42.109 34.204 41.387 34.497 40.81 34.8 40.361 35.036 40.131 35.246 39.65 35.5 38.92 35.886 37.684 36.307 36.81 36.8 35.993 37.261 35.277 37.873 34.55 38.34 33.895 38.761 33.293 39.047 32.65 39.49 31.929 39.986 31.168 40.607 30.45 41.2 29.728 41.797 28.909 42.539 28.33 43.06 27.919 43.429 27.644 43.64 27.29 44.02 26.854 44.489 26.357 45.206 25.95 45.7 25.621 46.1 25.35 46.419 25.04 46.77 24.73 47.122 24.408 47.464 24.09 47.81 23.771 48.157 23.376 48.531 23.13 48.85 22.945 49.089 22.831 49.282 22.7 49.52 22.563 49.77 22.483 49.994 22.33 50.32 22.086 50.839 21.59 51.791 21.37 52.33 21.228 52.678 21.166 52.858 21.07 53.21 20.932 53.718 20.785 54.462 20.68 55.1 20.574 55.745 20.561 56.292 20.44 57.06 20.265 58.168 19.946 59.854 19.66 61.1 19.41 62.19 19.04 63.235 18.85 64.14 18.7 64.855 18.632 65.43 18.55 66.08 18.468 66.733 18.472 67.325 18.36 68.05 18.22 68.962 17.864 70.2 17.71 71.11 17.587 71.833 17.529 72.347 17.46 73.07 17.375 73.958 17.317 75.055 17.27 76.05 17.223 77.045 17.203 78.042 17.18 79.04 17.157 80.039 17.142 81.04 17.13 82.04 17.118 83.04 17.115 84.141 17.11 85.04 17.106 85.774 17.103 86.306 17.1 87.04 17.096 87.939 17.093 88.913 17.09 90.04 17.086 91.495 16.953 93.742 17.08 95.04 17.162 95.881 17.314 96.35 17.49 97.1 17.705 98.018 18.022 99.13 18.31 100.14 18.599 101.153 18.835 102.094 19.22 103.17 19.676 104.445 20.333 105.913 20.93 107.27 21.529 108.63 22.065 110.073 22.81 111.32 23.527 112.522 24.512 113.473 25.29 114.64 26.095 115.848 26.632 117.272 27.55 118.46 28.51 119.703 29.868 120.799 30.97 121.91 32 122.948 32.955 124.016 33.96 124.92 34.883 125.75 35.802 126.434 36.75 127.16 37.701 127.888 38.54 128.594 39.66 129.28 41.022 130.114 42.895 130.926 44.41 131.69 45.797 132.389 47.064 133.122 48.4 133.69 49.678 134.233 51.047 134.632 52.25 135.05 53.309 135.417 54.169 135.733 55.24 136.07 56.463 136.454 57.876 136.843 59.2 137.21 60.523 137.577 61.849 138.019 63.18 138.27 64.483 138.515 65.88 138.506 67.1 138.71 68.186 138.891 69.242 139.229 70.15 139.39 70.872 139.518 71.387 139.579 72.11 139.65 72.998 139.737 74.361 139.799 75.09 139.84 75.512 139.864 75.7 139.874 76.09 139.89 76.64 139.912 77.416 139.933 78.08 139.95 78.746 139.967 79.413 139.98 80.08 139.99 80.747 140 81.528 140.004 82.08 140.01 82.471 140.014 82.689 140.017 83.08 140.02 83.632 140.024 84.413 140.028 85.08 140.03 85.747 140.032 86.517 140.099 87.08 140.03 87.502 139.979 87.752 139.885 88.17 139.76 88.756 139.585 89.691 139.2 90.25 139.03 90.619 138.918 90.858 138.903 91.18 138.79 91.551 138.66 91.975 138.411 92.34 138.27 92.653 138.149 92.874 138.109 93.23 137.98 93.779 137.781 94.717 137.429 95.3 137.15 95.75 136.935 96.021 136.74 96.46 136.5 97.029 136.189 97.777 135.72 98.43 135.45 99.026 135.203 99.598 135.119 100.21 134.91 100.878 134.682 101.526 134.399 102.28 134.12 103.182 133.786 104.266 133.482 105.26 133.05 106.313 132.592 107.313 132.067 108.42 131.42 109.728 130.655 111.443 129.392 112.57 128.69 113.325 128.22 113.844 127.926 114.49 127.56 115.137 127.193 115.792 126.913 116.45 126.49 117.184 126.019 117.951 125.323 118.67 124.83 119.313 124.389 119.915 124.031 120.55 123.65 121.185 123.268 121.927 122.89 122.48 122.54 122.916 122.264 123.149 122.073 123.62 121.75 124.378 121.23 125.71 120.299 126.6 119.73 127.301 119.282 127.962 118.938 128.51 118.58 128.942 118.298 129.211 118.111 129.64 117.78 130.251 117.308 131.091 116.501 131.79 115.97 132.407 115.5 133.074 115.111 133.6 114.73 134.02 114.426 134.287 114.227 134.71 113.88 135.31 113.388 136.133 112.652 136.83 112.02 137.527 111.388 138.324 110.627 138.89 110.09 139.291 109.71 139.57 109.437 139.91 109.11 140.25 108.783 140.583 108.517 140.93 108.13 141.359 107.652 141.848 106.922 142.25 106.42 142.575 106.015 142.916 105.671 143.15 105.34 143.329 105.086 143.401 104.927 143.57 104.63 143.848 104.141 144.288 103.325 144.64 102.67 144.991 102.015 145.335 101.359 145.68 100.7 146.026 100.039 146.474 99.242 146.71 98.71 146.861 98.37 146.936 98.144 147.03 97.85 147.126 97.551 147.205 97.24 147.28 96.93 147.355 96.617 147.38 96.355 147.48 95.98 147.629 95.418 147.974 94.584 148.15 93.9 148.316 93.255 148.422 92.634 148.52 91.99 148.619 91.34 148.68 90.679 148.74 90.02 148.8 89.359 148.843 88.694 148.88 88.03 148.917 87.367 148.938 86.704 148.96 86.04 148.982 85.374 148.997 84.707 149.01 84.04 149.023 83.373 149.102 82.601 149.04 82.04 148.994 81.622 148.86 81.375 148.78 80.96 148.674 80.407 148.639 79.666 148.5 79.01 148.354 78.323 148.136 77.619 147.91 76.93 147.681 76.232 147.405 75.538 147.13 74.85 146.855 74.161 146.485 73.475 146.26 72.8 146.051 72.176 145.984 71.488 145.8 70.95 145.65 70.511 145.488 70.229 145.29 69.79 145.027 69.206 144.658 68.335 144.35 67.76 144.11 67.312 143.897 67.039 143.64 66.6 143.311 66.039 143.062 65.407 142.55 64.66 141.738 63.476 139.849 61.498 138.99 60.35 138.451 59.63 138.157 59.217 137.76 58.53 137.288 57.713 136.91 56.601 136.4 55.74 135.92 54.929 135.288 54.215 134.81 53.49 134.381 52.84 134.091 52.301 133.65 51.6 133.088 50.706 132.354 49.484 131.7 48.57 131.123 47.765 130.475 47.089 129.96 46.38 129.502 45.75 129.202 45.167 128.74 44.54 128.22 43.834 127.49 43.075 126.97 42.37 126.509 41.745 126.128 41.069 125.75 40.54 125.449 40.118 125.248 39.805 124.9 39.43 124.474 38.97 123.885 38.469 123.33 38.03 122.763 37.581 122.144 37.172 121.53 36.77 120.914 36.366 120.346 35.988 119.64 35.61 118.801 35.161 117.664 34.705 116.8 34.3 116.071 33.958 115.529 33.665 114.79 33.34 113.911 32.953 112.842 32.538 111.86 32.16 110.879 31.782 109.963 31.423 108.9 31.07 107.686 30.667 106.185 30.274 104.96 29.9 103.885 29.571 103.021 29.191 101.94 28.95 100.738 28.683 99.272 28.651 98.06 28.43 96.975 28.232 96.015 27.896 95 27.72 94.015 27.549 93.045 27.465 92.06 27.38 91.071 27.295 90.147 27.252 89.08 27.21 87.845 27.161 86.413 27.143 85.08 27.12 83.747 27.097 82.318 27.08 81.08 27.07 80.008 27.062 78.979 27.064 78.08 27.06 77.346 27.057 76.897 27.052 76.08 27.05 74.789 27.047 72.535 27.052 71.08 27.05 69.953 27.048 69.08 27.042 68.08 27.04 67.08 27.038 66.151 26.963 65.08 27.04 63.833 27.129 62.295 27.382 61.05 27.62 59.957 27.829 58.907 28.179 58 28.35 57.281 28.485 56.769 28.485 56.05 28.62 55.143 28.791 54.081 29.013 53 29.35 51.717 29.751 50.145 30.477 48.88 30.95 47.809 31.35 46.797 31.671 45.9 32.02 45.149 32.312 44.596 32.521 43.85 32.88 42.904 33.336 41.744 34.001 40.71 34.6 39.674 35.201 38.551 35.945 37.64 36.48 36.924 36.9 36.354 37.143 35.7 37.57 34.969 38.047 34.328 38.603 33.48 39.24 32.342 40.095 30.575 41.483 29.48 42.24 28.751 42.744 28.346 42.936 27.61 43.43 26.505 44.171 24.506 45.453 23.53 46.31 22.9 46.863 22.547 47.381 22.12 47.84 21.768 48.218 21.477 48.53 21.15 48.87 20.823 49.21 20.489 49.543 20.16 49.88 19.832 50.216 19.461 50.498 19.18 50.89 18.876 51.315 18.697 51.832 18.43 52.36 18.119 52.975 17.662 53.827 17.43 54.36 17.282 54.701 17.211 54.873 17.11 55.22 16.964 55.723 16.883 56.47 16.71 57.11 16.525 57.792 16.199 58.506 16.02 59.19 15.851 59.835 15.748 60.457 15.65 61.1 15.551 61.747 15.49 62.404 15.43 63.06 15.37 63.72 15.329 64.319 15.29 65.05 15.242 65.945 15.206 66.971 15.18 68.04 15.15 69.276 15.144 70.802 15.13 72.04 15.118 73.112 15.107 74.04 15.1 75.04 15.093 76.04 15.092 76.968 15.09 78.04 15.088 79.278 14.989 80.802 15.09 82.04 15.179 83.127 15.386 83.998 15.59 85.08 15.826 86.331 16.147 87.994 16.45 89.11 16.671 89.924 16.888 90.433 17.14 91.19 17.442 92.099 17.808 93.189 18.14 94.19 18.472 95.192 18.8 96.296 19.13 97.2 19.406 97.957 19.67 98.509 19.96 99.26 20.305 100.155 20.697 101.326 21.05 102.22 21.347 102.973 21.558 103.532 21.92 104.28 22.378 105.225 23.142 106.484 23.64 107.41 24.034 108.143 24.335 108.729 24.68 109.39 25.025 110.052 25.382 110.815 25.71 111.38 25.966 111.82 26.19 112.146 26.45 112.52 26.713 112.899 26.987 113.213 27.28 113.64 27.65 114.178 28.017 114.874 28.47 115.51 28.979 116.224 29.608 116.986 30.21 117.7 30.814 118.416 31.455 119.107 32.09 119.8 32.725 120.494 33.37 121.179 34.02 121.86 34.67 122.542 35.255 123.218 35.99 123.89 36.815 124.645 37.817 125.411 38.76 126.14 39.707 126.872 40.501 127.52 41.66 128.27 43.239 129.292 46.041 130.771 47.47 131.56 48.297 132.017 48.667 132.213 49.44 132.62 50.532 133.196 52.077 134.092 53.41 134.67 54.685 135.223 56.058 135.618 57.26 136.04 58.316 136.41 59.171 136.732 60.24 137.07 61.462 137.457 62.876 137.843 64.2 138.21 65.523 138.577 66.946 138.921 68.18 139.27 69.261 139.576 70.127 139.951 71.21 140.18 72.416 140.435 73.886 140.455 75.1 140.67 76.186 140.862 77.145 141.198 78.16 141.37 79.145 141.537 80.21 141.531 81.1 141.7 81.859 141.844 82.422 142.108 83.18 142.26 84.068 142.438 85.057 142.551 86.11 142.65 87.333 142.765 88.69 142.728 90.09 142.87 91.67 143.03 93.53 143.444 95.11 143.61 96.51 143.757 97.688 143.801 99.09 143.86 100.659 143.927 102.627 143.944 104.08 143.97 105.206 143.99 105.908 144 107.08 144.01 108.737 144.024 111.171 144.025 113.08 144.03 114.823 144.035 116.625 144.039 118.08 144.04 119.207 144.041 119.841 144.096 121.08 144.04 123.109 143.948 127.064 143.446 129.09 143.31 130.326 143.227 131.083 143.296 132.08 143.18 133.096 143.062 134.222 142.737 135.13 142.6 135.856 142.491 136.375 142.501 137.1 142.38 138.01 142.228 139.235 141.954 140.15 141.7 140.918 141.486 141.55 141.256 142.24 141 142.933 140.743 143.717 140.44 144.3 140.16 144.752 139.943 145.03 139.7 145.47 139.51 145.985 139.287 146.702 139.16 147.22 138.95 147.657 138.773 147.997 138.637 148.39 138.37 148.872 138.042 149.405 137.456 149.85 137.05 150.227 136.706 150.547 136.413 150.89 136.09 151.233 135.767 151.57 135.437 151.91 135.11 152.25 134.783 152.592 134.458 152.93 134.13 153.268 133.802 153.595 133.529 153.94 133.14 154.367 132.658 154.857 131.923 155.26 131.42 155.584 131.015 155.894 130.803 156.16 130.34 156.524 129.706 156.754 128.644 157.06 127.86 157.341 127.141 157.698 126.485 157.92 125.81 158.125 125.186 158.245 124.652 158.37 123.96 158.526 123.097 158.634 121.906 158.72 121.02 158.791 120.293 158.829 119.844 158.87 119.03 158.935 117.743 158.97 115.612 159 114.04 159.027 112.633 159.038 111.373 159.05 110.04 159.062 108.707 159.065 107.373 159.07 106.04 159.075 104.707 159.078 103.278 159.08 102.04 159.081 100.968 159.08 100.04 159.08 99.04 159.08 98.04 159.08 97.112 159.08 96.04 159.08 94.802 159.08 93.278 159.08 92.04 159.08 90.968 159.15 90.166 159.08 89.04 158.989 87.578 158.709 85.48 158.45 84.02 158.247 82.872 157.895 81.705 157.75 80.97 157.669 80.558 157.676 80.411 157.59 80 157.437 79.264 157.096 77.962 156.82 76.95 156.543 75.936 156.236 74.928 155.93 73.92 155.623 72.911 155.3 71.904 154.98 70.9 154.66 69.898 154.444 69.102 154.01 67.9 153.336 66.032 151.898 62.688 151.19 60.83 150.734 59.633 150.462 58.754 150.11 57.86 149.814 57.109 149.538 56.491 149.24 55.81 148.941 55.127 148.632 54.568 148.32 53.77 147.899 52.692 147.539 50.988 147.03 49.89 146.618 49.003 146.146 48.422 145.64 47.61 145.052 46.667 144.259 45.582 143.7 44.57 143.181 43.629 142.868 42.703 142.37 41.75 141.836 40.728 141.196 39.666 140.58 38.64 139.963 37.613 139.387 36.671 138.67 35.59 137.825 34.316 136.67 32.758 135.8 31.5 135.061 30.431 134.339 29.411 133.77 28.52 133.323 27.82 133.121 27.31 132.63 26.61 131.956 25.65 130.799 24.325 129.98 23.37 129.307 22.586 128.804 21.961 128.09 21.27 127.289 20.495 126.301 19.718 125.37 18.98 124.434 18.238 123.461 17.533 122.49 16.83 121.518 16.126 120.53 15.35 119.54 14.76 118.622 14.214 117.841 13.806 116.77 13.38 115.404 12.837 113.65 12.357 111.95 11.92 110.085 11.44 107.916 10.933 106.02 10.66 104.304 10.413 102.722 10.471 101.07 10.28 99.399 10.086 97.801 9.681 96.05 9.5 94.151 9.304 92.274 9.26 90.08 9.19 87.388 9.104 83.642 9.101 81.08 9.08 79.17 9.065 77.747 9.065 76.08 9.06 74.413 9.055 72.745 8.949 71.08 9.05 69.405 9.151 67.73 9.424 66.06 9.67 64.384 9.917 62.711 10.228 61.04 10.53 59.368 10.832 57.602 11.043 56.03 11.48 54.569 11.886 53.268 12.554 51.9 13.01 50.579 13.45 49.185 13.703 47.96 14.18 46.824 14.622 45.825 15.265 44.78 15.73 43.794 16.169 42.838 16.449 41.86 16.91 40.819 17.4 39.755 18.106 38.72 18.61 37.75 19.082 36.714 19.47 35.84 19.86 35.103 20.189 34.488 20.406 33.81 20.79 33.059 21.216 32.277 21.871 31.55 22.34 30.895 22.762 30.293 23.047 29.65 23.49 28.929 23.986 28.168 24.607 27.45 25.2 26.728 25.797 26.021 26.516 25.33 27.06 24.721 27.539 24.155 27.849 23.54 28.32 22.843 28.854 22.086 29.504 21.38 30.12 20.673 30.737 19.988 31.379 19.3 32.02 18.611 32.662 17.997 33.249 17.25 33.97 16.335 34.853 15.114 36.174 14.22 36.94 13.581 37.488 13.08 37.757 12.48 38.24 11.796 38.789 10.931 39.564 10.35 40.08 9.939 40.445 9.665 40.653 9.31 41.03 8.872 41.495 8.455 42.117 7.96 42.7 7.392 43.369 6.629 44.122 6.08 44.81 5.597 45.415 5.213 45.98 4.81 46.59 4.403 47.206 3.916 47.983 3.65 48.49 3.482 48.81 3.44 48.97 3.29 49.3 3.052 49.823 2.593 50.654 2.35 51.32 2.127 51.933 2.056 52.517 1.86 53.14 1.648 53.814 1.306 54.537 1.11 55.22 0.926 55.859 0.808 56.472 0.7 57.11 0.591 57.755 0.525 58.414 0.46 59.07 0.395 59.728 0.352 60.322 0.31 61.05 0.258 61.944 0.217 63.143 0.19 64.04 0.168 64.773 0.161 65.306 0.15 66.04 0.137 66.939 0.128 68.04 0.12 69.04 0.112 70.04 0.105 70.968 0.1 72.04 0.094 73.278 0.094 74.802 0.09 76.04 0.087 77.112 0.082 78.04 0.08 79.04 0.078 80.04 -0.108 80.88 0.08 82.04 0.357 83.747 1.433 86.369 2.13 88.2 2.707 89.716 3.379 91.033 3.89 92.29 4.32 93.349 4.567 94.342 5.02 95.24 5.438 96.069 5.954 96.642 6.47 97.51 7.135 98.628 7.922 100.203 8.63 101.42 9.266 102.513 9.872 103.474 10.51 104.49 11.148 105.507 11.803 106.608 12.46 107.52 13.038 108.323 13.686 108.908 14.21 109.7 14.759 110.529 15.13 111.56 15.66 112.4 16.164 113.198 16.727 113.831 17.3 114.63 17.953 115.541 18.678 116.686 19.36 117.58 19.963 118.37 20.631 119.038 21.16 119.74 21.629 120.361 21.938 120.878 22.4 121.56 22.991 122.433 23.658 123.557 24.41 124.55 25.224 125.624 26.204 126.711 27.14 127.76 28.078 128.811 29.056 129.829 30.03 130.85 31.006 131.872 32.1 132.981 32.99 133.89 33.718 134.633 34.241 135.24 34.98 135.91 35.808 136.661 36.73 137.428 37.75 138.15 38.887 138.954 40.338 139.625 41.52 140.47 42.671 141.292 43.4 142.201 44.76 143.14 46.74 144.506 50.752 146.589 52.48 147.55 53.345 148.031 53.715 148.258 54.44 148.61 55.302 149.028 56.284 149.466 57.33 149.86 58.523 150.31 59.921 150.725 61.23 151.12 62.541 151.515 63.866 151.87 65.19 152.23 66.516 152.59 67.849 152.935 69.18 153.28 70.509 153.625 71.763 153.965 73.17 154.3 74.735 154.673 76.411 155.048 78.15 155.4 80.049 155.784 82.226 156.14 84.13 156.5 85.875 156.829 87.394 157.148 89.14 157.47 91.046 157.822 93.334 158.295 95.13 158.52 96.581 158.702 97.767 158.656 99.09 158.82 100.434 158.987 101.786 159.353 103.13 159.52 104.453 159.684 105.635 159.666 107.09 159.82 108.89 160.011 111.025 160.457 113.11 160.64 115.344 160.837 118.077 160.719 120.08 160.92 121.614 161.074 122.638 161.413 124.12 161.57 125.912 161.76 128.189 161.812 130.09 161.88 131.827 161.942 133.416 161.957 135.08 161.98 136.746 162.003 138.413 162.012 140.08 162.02 141.747 162.028 143.17 162.027 145.08 162.03 147.642 162.034 151.884 162.039 154.08 162.04 155.348 162.041 156.008 162.04 157.08 162.04 158.318 162.04 159.747 162.134 161.08 162.04 162.424 161.945 163.865 161.706 165.11 161.47 166.203 161.262 167.245 161.006 168.16 160.74 168.928 160.516 169.565 160.206 170.25 160.02 170.89 159.846 171.499 159.808 172.14 159.64 172.824 159.461 173.619 159.28 174.23 158.96 174.788 158.668 175.165 158.276 175.69 157.85 176.341 157.322 177.213 156.633 177.82 156.01 178.348 155.468 178.739 155 179.17 154.36 179.687 153.593 180.108 152.59 180.64 151.67 181.217 150.674 181.973 149.701 182.52 148.6 183.099 147.434 183.453 146.111 183.99 144.84 184.555 143.503 185.31 142.022 185.84 140.77 186.285 139.72 186.621 138.896 186.99 137.84 187.412 136.633 187.817 135.226 188.2 133.91 188.583 132.593 189.033 131.269 189.29 129.94 189.542 128.639 189.54 127.332 189.74 126.02 189.944 124.682 190.324 123.409 190.51 121.99 190.715 120.428 190.786 118.881 190.87 117.03 190.977 114.684 190.991 111.064 191.02 109.04 191.038 107.8 191.042 107.212 191.05 106.04 191.061 104.383 191.065 102.04 191.07 100.04 191.075 98.04 191.182 96.115 191.08 94.04 190.97 91.791 190.79 89.165 190.38 87.03 190.024 85.175 189.353 83.519 188.91 81.92 188.52 80.513 188.29 79.264 187.85 77.94 187.393 76.567 186.685 75.274 186.2 73.83 185.682 72.285 185.39 70.486 184.87 68.94 184.384 67.493 183.938 66.304 183.21 64.82 182.285 62.935 180.616 60.326 179.59 58.63 178.863 57.429 178.32 56.669 177.68 55.58 176.967 54.367 176.233 52.982 175.53 51.67 174.826 50.356 174.147 48.93 173.46 47.7 172.845 46.599 172.243 45.717 171.62 44.62 170.925 43.395 170.299 41.902 169.5 40.68 168.729 39.501 167.733 38.47 166.93 37.4 166.184 36.406 165.677 35.449 164.83 34.48 163.84 33.347 162.598 32.392 161.26 31.1 159.502 29.403 156.692 26.604 155.22 25.15 154.37 24.31 153.993 23.939 153.21 23.16 152.103 22.058 150.317 20.264 149.21 19.16 148.426 18.378 147.995 17.885 147.2 17.16 146.146 16.199 144.671 15.014 143.38 13.97 142.087 12.924 140.777 11.807 139.45 10.89 138.198 10.025 136.937 9.326 135.65 8.59 134.36 7.852 133.036 7.165 131.72 6.47 130.403 5.775 129.163 4.999 127.75 4.42 126.251 3.806 124.479 3.376 122.95 2.93 121.565 2.525 120.202 2.092 118.97 1.84 117.929 1.627 117.152 1.612 116.05 1.44 114.602 1.214 112.789 0.763 111.04 0.56 109.146 0.34 107.071 0.297 105.08 0.22 103.084 0.143 100.989 0.127 99.08 0.1 97.337 0.076 95.747 0.068 94.08 0.06 92.413 0.052 90.823 0.053 89.08 0.05 87.171 0.047 84.989 0.042 83.08 0.04 81.337 0.039 79.747 0.04 78.08 0.04 76.413 0.04 74.654 0.04 73.08 0.04 71.672 0.04 70.412 -0.055 69.08 0.04 67.736 0.136 66.39 0.387 65.05 0.62 63.703 0.854 62.43 1.067 61.02 1.44 59.41 1.866 57.407 2.501 55.93 3.11 54.728 3.605 53.803 4.224 52.76 4.7 51.778 5.148 50.825 5.434 49.85 5.9 48.812 6.396 47.752 7.015 46.72 7.61 45.682 8.208 44.562 8.841 43.64 9.48 42.829 10.041 42.226 10.483 41.45 11.2 40.418 12.155 38.939 13.812 38.11 14.83 37.557 15.509 37.307 15.999 36.83 16.61 36.291 17.301 35.551 18.052 35.02 18.75 34.55 19.369 34.18 19.884 33.78 20.57 33.305 21.384 32.918 22.408 32.41 23.35 31.863 24.365 31.122 25.341 30.59 26.45 30.025 27.628 29.586 28.884 29.15 30.24 28.662 31.757 28.354 33.503 27.85 35.14 27.331 36.826 26.678 38.448 26.07 40.21 25.41 42.122 24.704 44.122 24.04 46.2 23.328 48.429 22.637 50.844 21.95 53.17 21.263 55.497 20.593 57.829 19.92 60.16 19.247 62.492 18.578 64.826 17.91 67.16 17.242 69.493 16.536 71.453 15.91 74.16 15.07 77.796 14.221 83.784 13.61 87.09 13.229 89.15 12.873 90.351 12.65 92.1 12.409 93.991 12.355 96.062 12.27 98.05 12.185 100.042 12.168 102.042 12.14 104.04 12.112 106.039 12.108 108.04 12.1 110.04 12.092 112.04 12.093 114.131 12.09 116.04 12.087 117.783 12.082 119.373 12.08 121.04 12.078 122.707 11.967 124.467 12.08 126.04 12.182 127.46 12.427 128.73 12.66 130.07 12.894 131.417 13.085 132.855 13.48 134.1 13.844 135.246 14.455 136.348 14.88 137.29 15.22 138.045 15.446 138.531 15.82 139.32 16.349 140.435 17.11 142.097 17.77 143.34 18.362 144.455 18.95 145.424 19.57 146.45 20.19 147.477 20.76 148.492 21.49 149.5 22.278 150.587 23.247 151.675 24.17 152.73 25.097 153.789 26.071 154.814 27.04 155.84 28.011 156.867 28.994 157.977 29.99 158.89 30.903 159.727 31.75 160.339 32.76 161.14 33.955 162.088 35.127 163.15 36.71 164.2 38.823 165.602 42.307 167.564 44.47 168.57 45.93 169.249 46.85 169.561 48.27 169.99 50.004 170.513 52.115 170.846 54.16 171.36 56.405 171.924 58.936 172.731 61.19 173.26 63.248 173.743 65.07 174.183 67.14 174.45 69.357 174.736 71.966 174.641 74.09 174.86 75.904 175.047 77.53 175.434 79.11 175.6 80.51 175.747 81.577 175.787 83.09 175.85 85.093 175.933 87.945 175.962 90.08 175.99 91.886 176.014 93.625 176.013 95.08 176.02 96.207 176.025 96.953 176.027 98.08 176.03 99.535 176.034 101.506 176.038 103.08 176.04 104.488 176.041 105.672 176.04 107.08 176.04 108.654 176.04 110.62 176.276 112.08 176.04 113.271 175.847 114.2 175.336 115.24 174.99 116.253 174.653 117.24 174.323 118.24 173.99 119.24 173.657 120.242 173.406 121.24 172.99 122.296 172.55 123.36 171.958 124.4 171.39 125.447 170.818 126.477 170.195 127.5 169.57 128.524 168.945 129.634 168.186 130.54 167.64 131.254 167.21 131.672 167.063 132.48 166.53 133.988 165.536 136.995 163.088 138.69 161.85 139.844 161.008 140.649 160.539 141.63 159.77 142.692 158.938 143.776 157.954 144.82 157.01 145.866 156.064 146.809 155.15 147.9 154.1 149.161 152.887 150.575 151.247 151.94 150.14 153.142 149.165 154.438 148.58 155.59 147.71 156.718 146.858 157.742 145.915 158.79 144.98 159.842 144.042 160.867 143.065 161.89 142.09 162.914 141.115 164.148 140.007 164.93 139.13 165.488 138.504 165.763 137.939 166.25 137.42 166.731 136.907 167.36 136.453 167.83 136.03 168.215 135.683 168.516 135.45 168.87 135.07 169.306 134.601 169.904 133.845 170.21 133.39 170.401 133.106 170.454 132.964 170.62 132.66 170.891 132.164 171.324 131.349 171.67 130.69 172.017 130.029 172.425 129.434 172.7 128.7 173.009 127.876 173.201 126.895 173.37 125.96 173.543 125.002 173.632 124.005 173.72 123.02 173.809 122.031 173.854 121.107 173.9 120.04 173.953 118.805 173.975 117.448 174 116.04 174.028 114.466 174.038 112.847 174.05 111.04 174.064 108.903 174.064 105.886 174.07 104.04 174.074 102.831 174.078 102.167 174.08 101.04 174.082 99.585 174.08 97.614 174.08 96.04 174.08 94.632 174.174 93.373 174.08 92.04 173.985 90.696 173.774 89.681 173.51 88.01 173.073 85.241 172.128 79.524 171.59 77 171.305 75.661 171.096 74.962 170.82 73.95 170.543 72.936 170.154 72.003 169.93 70.92 169.68 69.711 169.665 68.112 169.45 67.02 169.29 66.209 169.102 65.62 168.88 64.93 168.656 64.233 168.308 63.541 168.11 62.86 167.925 62.225 167.879 61.679 167.71 60.98 167.493 60.083 167.173 58.843 166.88 57.93 166.635 57.167 166.45 56.549 166.11 55.86 165.735 55.099 165.101 54.2 164.68 53.58 164.378 53.135 164.197 52.886 163.86 52.46 163.38 51.853 162.728 51.022 162.03 50.32 161.247 49.532 160.17 48.637 159.35 48 158.705 47.499 158.227 47.214 157.55 46.75 156.681 46.155 155.753 45.385 154.56 44.73 152.99 43.868 150.253 42.878 148.83 42.24 147.979 41.858 147.654 41.706 146.8 41.3 145.323 40.597 142.438 39.102 140.78 38.36 139.643 37.851 138.917 37.468 137.86 37.17 136.689 36.839 135.398 36.779 134.04 36.54 132.482 36.265 130.607 35.811 129.03 35.6 127.638 35.414 126.393 35.357 125.07 35.28 123.743 35.203 122.639 35.174 121.08 35.14 118.873 35.092 115.106 35.082 113.08 35.07 111.84 35.063 111.08 34.98 110.08 35.06 109.067 35.141 108.05 35.351 107.04 35.56 106.02 35.771 105.127 35.984 103.99 36.32 102.505 36.759 100.601 37.451 98.92 38.06 97.235 38.671 95.469 39.324 93.89 39.98 92.452 40.577 91.163 41.091 89.82 41.81 88.404 42.568 87.007 43.634 85.62 44.45 84.305 45.224 83.023 45.899 81.71 46.6 80.396 47.302 79.123 47.82 77.74 48.66 76.091 49.662 74.355 51.179 72.54 52.32 70.679 53.49 68.33 54.488 66.7 55.58 65.412 56.443 64.499 57.476 63.43 58.18 62.515 58.783 61.57 59.101 60.73 59.63 59.933 60.132 59.299 60.689 58.5 61.26 57.586 61.913 56.318 62.652 55.54 63.33 54.95 63.844 54.641 64.379 54.13 64.85 53.609 65.33 52.937 65.773 52.44 66.18 52.036 66.511 51.77 66.693 51.36 67.1 50.714 67.741 49.655 69.087 49.05 69.77 48.667 70.203 48.428 70.413 48.1 70.82 47.691 71.326 47.23 71.924 46.82 72.6 46.333 73.403 45.86 74.42 45.43 75.36 44.996 76.309 44.613 77.292 44.23 78.27 43.846 79.249 43.407 80.163 43.13 81.23 42.823 82.415 42.682 83.784 42.54 85.08 42.397 86.39 42.342 87.724 42.28 89.05 42.218 90.378 42.197 91.709 42.17 93.04 42.143 94.372 42.133 95.632 42.12 97.04 42.105 98.614 42.096 100.178 42.09 102.04 42.083 104.395 41.782 107.829 42.09 110.04 42.315 111.657 42.791 112.8 43.26 114.16 43.738 115.544 44.348 116.912 44.94 118.27 45.534 119.632 46.024 120.917 46.82 122.32 47.769 123.992 49.137 125.942 50.39 127.56 51.571 129.084 52.818 130.508 54.1 131.79 55.304 132.993 56.357 133.948 57.83 135.06 59.702 136.474 62.269 138.118 64.56 139.41 66.789 140.667 69.073 141.779 71.38 142.73 73.635 143.659 76.022 144.446 78.24 145.07 80.267 145.64 82.093 145.989 84.15 146.39 86.372 146.823 88.715 147.186 91.12 147.55 93.69 147.939 96.636 148.416 99.11 148.64 101.24 148.833 103.178 148.852 105.08 148.91 106.82 148.963 108.337 148.972 110.08 148.99 111.989 149.01 114.282 149.013 116.08 149.02 117.548 149.026 118.747 149.122 120.08 149.03 121.424 148.937 122.7 148.772 124.11 148.46 125.723 148.103 127.872 147.495 129.21 146.91 130.154 146.497 130.758 146.139 131.5 145.57 132.345 144.922 133.119 144.181 133.95 143.15 135.1 141.723 136.607 139.292 137.48 137.58 138.163 136.241 138.536 135.462 138.97 133.83 139.717 131.022 140.344 125.44 140.66 122.01 140.901 119.389 140.887 117.366 140.95 115.04 141.013 112.71 141.02 110.373 141.04 108.04 141.06 105.707 141.063 103.373 141.07 101.04 141.077 98.707 141.078 96.178 141.08 94.04 141.081 92.233 141.184 90.705 141.08 89.04 140.975 87.365 140.776 85.826 140.45 84.02 140.06 81.857 139.269 78.98 138.78 76.96 138.412 75.437 138.12 74.294 137.79 72.96 137.46 71.624 137.214 70.355 136.8 68.95 136.329 67.349 135.768 65.553 135.06 63.88 134.325 62.142 133.355 60.422 132.44 58.72 131.522 57.012 130.533 55.332 129.56 53.65 128.587 51.969 127.49 50.09 126.6 48.63 125.9 47.482 125.455 46.711 124.68 45.58 123.649 44.073 122.177 42.043 120.87 40.45 119.643 38.954 118.463 37.632 117.09 36.27 115.628 34.821 113.726 33.187 112.32 32.03 111.267 31.163 110.341 30.568 109.47 29.86 108.697 29.231 108.227 28.627 107.34 28.01 106.127 27.167 104.198 26.273 102.71 25.48 101.34 24.75 100.071 24 98.74 23.42 97.47 22.867 96.198 22.564 94.91 22.05 93.562 21.512 92.188 20.769 90.83 20.25 89.528 19.752 88.546 19.362 86.93 18.98 84.407 18.383 79.089 17.736 77.05 17.49 76.14 17.38 75.798 17.359 75.07 17.31 74.176 17.25 73.078 17.213 72.08 17.18 71.081 17.147 70.152 17.128 69.08 17.11 67.842 17.089 66.318 17.078 65.08 17.07 64.008 17.063 63.152 17.063 62.08 17.06 60.842 17.056 59.318 17.054 58.08 17.05 57.008 17.047 56.08 17.042 55.08 17.04 54.08 17.038 53.08 17.04 52.08 17.04 51.08 17.04 49.982 16.951 49.08 17.04 48.325 17.114 47.77 17.274 47.02 17.45 46.102 17.665 44.892 17.983 43.98 18.27 43.216 18.51 42.702 18.698 41.9 19.02 40.76 19.478 38.806 20.205 37.82 20.83 37.172 21.241 36.943 21.681 36.36 22.09 35.626 22.604 34.607 22.972 33.7 23.58 32.639 24.291 31.391 25.363 30.43 26.17 29.639 26.835 29.014 27.413 28.32 28.05 27.627 28.686 26.861 29.345 26.27 29.99 25.753 30.554 25.422 31.092 24.93 31.68 24.369 32.351 23.702 33.096 23.07 33.79 22.436 34.486 21.666 35.281 21.13 35.85 20.751 36.252 20.495 36.48 20.16 36.88 19.744 37.376 19.256 38.119 18.86 38.63 18.543 39.04 18.281 39.362 17.98 39.72 17.678 40.079 17.289 40.455 17.05 40.78 16.869 41.026 16.783 41.273 16.63 41.47 16.497 41.642 16.373 41.734 16.2 41.91 15.936 42.178 15.456 42.611 15.2 42.92 15.011 43.148 14.935 43.321 14.76 43.56 14.527 43.88 14.13 44.321 13.91 44.66 13.739 44.924 13.673 45.093 13.51 45.4 13.243 45.9 12.707 46.85 12.47 47.38 12.318 47.72 12.289 47.937 12.15 48.24 11.983 48.606 11.696 48.969 11.51 49.41 11.291 49.929 11.104 50.681 10.97 51.18 10.873 51.541 10.813 51.804 10.75 52.12 10.686 52.437 10.641 52.702 10.59 53.08 10.518 53.621 10.44 54.513 10.39 55.06 10.355 55.446 10.333 55.719 10.31 56.05 10.287 56.382 10.269 56.66 10.25 57.05 10.224 57.6 10.198 58.376 10.18 59.04 10.162 59.706 10.15 60.373 10.14 61.04 10.13 61.707 10.127 62.373 10.12 63.04 10.113 63.707 10.105 64.373 10.1 65.04 10.095 65.707 10.092 66.306 10.09 67.04 10.088 67.939 10.092 69.04 10.09 70.04 10.088 71.04 10.082 72.04 10.08 73.04 10.078 74.04 10.08 75.141 10.08 76.04 10.08 76.774 10.08 77.306 10.08 78.04 10.08 78.939 10.08 79.968 10.08 81.04 10.08 82.278 10.08 83.935 10.08 85.04 10.08 85.821 10.08 86.306 10.08 87.04 10.08 87.939 10.08 89.141 10.08 90.04 10.08 90.774 10.019 91.307 10.08 92.04 10.156 92.95 10.377 94.167 10.59 95.08 10.769 95.848 11.056 96.483 11.22 97.17 11.375 97.819 11.404 98.442 11.56 99.09 11.725 99.774 11.961 100.482 12.2 101.17 12.441 101.865 12.815 102.684 13 103.24 13.122 103.605 13.113 103.769 13.26 104.16 13.543 104.91 14.347 106.553 14.78 107.34 15.048 107.828 15.311 108.134 15.5 108.49 15.653 108.778 15.71 109.011 15.86 109.3 16.045 109.657 16.303 110.081 16.55 110.46 16.8 110.844 17.14 111.242 17.35 111.59 17.516 111.865 17.597 112.149 17.74 112.36 17.855 112.53 17.957 112.609 18.11 112.78 18.353 113.052 18.74 113.483 19.06 113.83 19.38 114.177 19.647 114.509 20.03 114.86 20.502 115.292 21.224 115.784 21.72 116.19 22.121 116.518 22.382 116.697 22.79 117.1 23.438 117.741 24.381 119.063 25.12 119.78 25.693 120.336 26.284 120.718 26.77 121.13 27.165 121.465 27.422 121.69 27.83 122.06 28.407 122.583 29.209 123.34 29.89 123.99 30.572 124.64 31.249 125.392 31.92 125.96 32.508 126.458 33.067 126.769 33.67 127.25 34.357 127.798 35.114 128.551 35.81 129.09 36.423 129.565 37.087 129.956 37.61 130.34 38.029 130.648 38.296 130.899 38.72 131.2 39.252 131.577 40.037 132.027 40.57 132.4 40.993 132.697 41.338 133.021 41.68 133.24 41.947 133.411 42.119 133.478 42.43 133.64 42.934 133.903 43.856 134.331 44.42 134.66 44.861 134.917 45.126 135.142 45.56 135.41 46.115 135.753 46.848 136.242 47.49 136.53 48.071 136.79 48.629 136.881 49.23 137.1 49.894 137.342 50.62 137.717 51.3 137.93 51.929 138.127 52.527 138.179 53.16 138.36 53.839 138.554 54.556 138.886 55.24 139.07 55.882 139.243 56.436 139.285 57.14 139.45 58.038 139.661 59.449 140.099 60.18 140.27 60.588 140.365 60.762 140.401 61.14 140.46 61.677 140.544 63.1 140.69 63.1 140.69" style="fill: none; stroke: #000000; mix-blend-mode: source-over; stroke-dasharray: none; stroke-dashoffset: 0; stroke-linecap: round; stroke-linejoin: round; stroke-miterlimit: 4; stroke-opacity: 1; stroke-width: 24;"/>
</svg>